<svg width="1280" height="334" viewBox="0 0 1280 334" fill="none" xmlns="http://www.w3.org/2000/svg">
<mask id="mask0_150_922" style="mask-type:alpha" maskUnits="userSpaceOnUse" x="0" y="-1" width="1280" height="335">
<path fill-rule="evenodd" clip-rule="evenodd" d="M1055 18.3351C1055 8.20875 1046.79 -0.000244141 1036.66 -0.000244141H243.335C233.209 -0.000244141 225 8.20875 225 18.3351C225 28.4614 216.791 36.6704 206.665 36.6704H20C8.95431 36.6704 0 45.6247 0 56.6704V314C0 325.045 8.95431 334 20 334H1260C1271.05 334 1280 325.045 1280 314V56.6704C1280 45.6247 1271.05 36.6704 1260 36.6704H1073.34C1063.21 36.6704 1055 28.4614 1055 18.3351Z" fill="url(#paint0_linear_150_922)"/>
</mask>
<g mask="url(#mask0_150_922)">
<g filter="url(#filter0_b_150_922)">
<path fill-rule="evenodd" clip-rule="evenodd" d="M1055 18.3351C1055 8.20875 1046.79 -0.000244141 1036.66 -0.000244141H243.335C233.209 -0.000244141 225 8.20875 225 18.3351C225 28.4614 216.791 36.6704 206.665 36.6704H20C8.95431 36.6704 0 45.6247 0 56.6704V314C0 325.045 8.95431 334 20 334H1260C1271.05 334 1280 325.045 1280 314V56.6704C1280 45.6247 1271.05 36.6704 1260 36.6704H1073.34C1063.21 36.6704 1055 28.4614 1055 18.3351Z" fill="url(#paint1_linear_150_922)" fill-opacity="0.8"/>
</g>
<path opacity="0.1" d="M1365 274C1365 353.529 1300.53 418 1221 418C1141.47 418 1077 353.529 1077 274C1077 194.471 1141.47 130 1221 130C1300.53 130 1365 194.471 1365 274ZM1144.47 274C1144.47 316.265 1178.74 350.527 1221 350.527C1263.26 350.527 1297.53 316.265 1297.53 274C1297.53 231.735 1263.26 197.473 1221 197.473C1178.74 197.473 1144.47 231.735 1144.47 274Z" fill="white"/>
<path opacity="0.2" d="M220.777 -14.5002C220.777 -115.016 139.293 -196.5 38.7773 -196.5C-61.7385 -196.5 -143.223 -115.016 -143.223 -14.5002C-143.223 86.0156 -61.7385 167.5 38.7773 167.5C139.293 167.5 220.777 86.0156 220.777 -14.5002ZM-57.9446 -14.5002C-57.9446 -67.9183 -14.6407 -111.222 38.7773 -111.222C92.1954 -111.222 135.499 -67.9183 135.499 -14.5002C135.499 38.9178 92.1954 82.2217 38.7773 82.2217C-14.6407 82.2217 -57.9446 38.9178 -57.9446 -14.5002Z" fill="url(#paint2_linear_150_922)"/>
<rect x="151" y="117" width="108" height="108" rx="54" fill="url(#paint3_linear_150_922)"/>
<rect x="162" y="128" width="86" height="86" rx="43" fill="white"/>
<rect x="162" y="128" width="86" height="86" rx="43" stroke="url(#paint4_linear_150_922)" stroke-width="2"/>
<path d="M214.078 149.333H195.921C188.035 149.333 183.333 154.035 183.333 161.921V180.056C183.333 187.965 188.035 192.666 195.921 192.666H214.056C221.943 192.666 226.645 187.965 226.645 180.078V161.921C226.666 154.035 221.965 149.333 214.078 149.333ZM203.981 174.315L195.921 182.375H200.666C201.555 182.375 202.291 183.111 202.291 184C202.291 184.888 201.555 185.625 200.666 185.625H192C191.783 185.625 191.566 185.581 191.371 185.495C190.981 185.321 190.656 185.018 190.483 184.606C190.418 184.411 190.375 184.216 190.375 184V175.333C190.375 174.445 191.111 173.708 192 173.708C192.888 173.708 193.625 174.445 193.625 175.333V180.078L201.685 172.018C202.313 171.39 203.353 171.39 203.981 172.018C204.61 172.646 204.61 173.686 203.981 174.315ZM219.625 166.666C219.625 167.555 218.888 168.291 218 168.291C217.111 168.291 216.375 167.555 216.375 166.666V161.921L208.315 169.981C207.99 170.306 207.578 170.458 207.166 170.458C206.755 170.458 206.343 170.306 206.018 169.981C205.39 169.353 205.39 168.313 206.018 167.685L214.078 159.625H209.333C208.445 159.625 207.708 158.888 207.708 158C207.708 157.111 208.445 156.375 209.333 156.375H218C218.216 156.375 218.411 156.418 218.628 156.505C219.018 156.678 219.343 156.981 219.516 157.393C219.581 157.588 219.625 157.783 219.625 158V166.666Z" fill="url(#paint5_linear_150_922)"/>
<path d="M81.2457 260V242.545H92.1889V244.812H83.8793V250.13H91.6179V252.389H83.8793V257.733H92.2912V260H81.2457ZM97.5135 246.909L100.403 252.005L103.317 246.909H106.104L102.022 253.454L106.138 260H103.352L100.403 255.108L97.4624 260H94.6669L98.7408 253.454L94.718 246.909H97.5135ZM108.721 264.909V246.909H111.21V249.031H111.423C111.57 248.758 111.783 248.443 112.062 248.085C112.34 247.727 112.727 247.415 113.221 247.147C113.715 246.875 114.369 246.738 115.181 246.738C116.238 246.738 117.181 247.005 118.011 247.54C118.84 248.074 119.491 248.844 119.962 249.849C120.44 250.855 120.678 252.065 120.678 253.48C120.678 254.895 120.442 256.108 119.971 257.119C119.499 258.125 118.852 258.9 118.028 259.446C117.204 259.986 116.263 260.255 115.207 260.255C114.411 260.255 113.761 260.122 113.255 259.855C112.755 259.588 112.363 259.275 112.079 258.917C111.795 258.559 111.576 258.241 111.423 257.963H111.269V264.909H108.721ZM111.218 253.454C111.218 254.375 111.352 255.182 111.619 255.875C111.886 256.568 112.272 257.111 112.778 257.503C113.283 257.889 113.903 258.082 114.636 258.082C115.397 258.082 116.033 257.88 116.545 257.477C117.056 257.068 117.442 256.514 117.704 255.815C117.971 255.116 118.104 254.329 118.104 253.454C118.104 252.591 117.974 251.815 117.712 251.128C117.457 250.44 117.07 249.897 116.553 249.5C116.042 249.102 115.403 248.903 114.636 248.903C113.897 248.903 113.272 249.094 112.761 249.474C112.255 249.855 111.871 250.386 111.61 251.068C111.349 251.75 111.218 252.545 111.218 253.454ZM127.343 260.29C126.513 260.29 125.763 260.136 125.093 259.829C124.423 259.517 123.891 259.065 123.499 258.474C123.113 257.883 122.92 257.159 122.92 256.301C122.92 255.562 123.062 254.954 123.346 254.477C123.63 254 124.013 253.622 124.496 253.344C124.979 253.065 125.519 252.855 126.116 252.713C126.712 252.571 127.32 252.463 127.94 252.389C128.724 252.298 129.36 252.224 129.849 252.167C130.337 252.105 130.692 252.005 130.914 251.869C131.136 251.733 131.246 251.511 131.246 251.204V251.145C131.246 250.4 131.036 249.824 130.616 249.415C130.201 249.005 129.582 248.801 128.758 248.801C127.9 248.801 127.224 248.991 126.729 249.372C126.241 249.747 125.903 250.165 125.715 250.625L123.32 250.079C123.604 249.284 124.019 248.642 124.565 248.153C125.116 247.659 125.749 247.301 126.465 247.079C127.181 246.852 127.934 246.738 128.724 246.738C129.246 246.738 129.8 246.801 130.386 246.926C130.977 247.045 131.528 247.267 132.039 247.591C132.556 247.915 132.979 248.378 133.309 248.98C133.638 249.576 133.803 250.352 133.803 251.307V260H131.315V258.21H131.212C131.048 258.54 130.8 258.863 130.471 259.182C130.141 259.5 129.718 259.764 129.201 259.974C128.684 260.184 128.065 260.29 127.343 260.29ZM127.897 258.244C128.602 258.244 129.204 258.105 129.704 257.826C130.21 257.548 130.593 257.184 130.854 256.736C131.121 256.281 131.255 255.795 131.255 255.278V253.591C131.164 253.682 130.988 253.767 130.727 253.846C130.471 253.92 130.178 253.986 129.849 254.042C129.519 254.094 129.198 254.142 128.886 254.187C128.573 254.227 128.312 254.261 128.102 254.29C127.607 254.352 127.156 254.457 126.746 254.605C126.343 254.753 126.019 254.966 125.775 255.244C125.536 255.517 125.417 255.88 125.417 256.335C125.417 256.966 125.65 257.443 126.116 257.767C126.582 258.085 127.175 258.244 127.897 258.244ZM139.746 252.227V260H137.197V246.909H139.643V249.04H139.805C140.107 248.346 140.578 247.79 141.22 247.369C141.868 246.949 142.683 246.738 143.666 246.738C144.558 246.738 145.339 246.926 146.01 247.301C146.68 247.67 147.2 248.221 147.57 248.954C147.939 249.687 148.124 250.594 148.124 251.673V260H145.575V251.98C145.575 251.031 145.328 250.29 144.834 249.755C144.339 249.216 143.661 248.946 142.797 248.946C142.206 248.946 141.68 249.074 141.22 249.329C140.766 249.585 140.405 249.96 140.138 250.454C139.876 250.943 139.746 251.534 139.746 252.227ZM156.442 260.255C155.385 260.255 154.442 259.986 153.612 259.446C152.788 258.9 152.141 258.125 151.669 257.119C151.203 256.108 150.97 254.895 150.97 253.48C150.97 252.065 151.206 250.855 151.678 249.849C152.155 248.844 152.808 248.074 153.638 247.54C154.467 247.005 155.408 246.738 156.459 246.738C157.271 246.738 157.925 246.875 158.419 247.147C158.919 247.415 159.305 247.727 159.578 248.085C159.857 248.443 160.072 248.758 160.226 249.031H160.379V242.545H162.928V260H160.439V257.963H160.226C160.072 258.241 159.851 258.559 159.561 258.917C159.277 259.275 158.885 259.588 158.385 259.855C157.885 260.122 157.237 260.255 156.442 260.255ZM157.004 258.082C157.737 258.082 158.357 257.889 158.862 257.503C159.374 257.111 159.76 256.568 160.021 255.875C160.288 255.182 160.422 254.375 160.422 253.454C160.422 252.545 160.291 251.75 160.03 251.068C159.768 250.386 159.385 249.855 158.879 249.474C158.374 249.094 157.749 248.903 157.004 248.903C156.237 248.903 155.598 249.102 155.087 249.5C154.575 249.897 154.189 250.44 153.928 251.128C153.672 251.815 153.544 252.591 153.544 253.454C153.544 254.329 153.675 255.116 153.936 255.815C154.197 256.514 154.584 257.068 155.095 257.477C155.612 257.88 156.249 258.082 157.004 258.082ZM166.565 260V246.909H169.113V260H166.565ZM167.852 244.889C167.408 244.889 167.028 244.741 166.71 244.446C166.397 244.145 166.241 243.787 166.241 243.372C166.241 242.951 166.397 242.594 166.71 242.298C167.028 241.997 167.408 241.846 167.852 241.846C168.295 241.846 168.673 241.997 168.985 242.298C169.303 242.594 169.462 242.951 169.462 243.372C169.462 243.787 169.303 244.145 168.985 244.446C168.673 244.741 168.295 244.889 167.852 244.889ZM175.089 252.227V260H172.541V246.909H174.987V249.04H175.149C175.45 248.346 175.922 247.79 176.564 247.369C177.212 246.949 178.027 246.738 179.01 246.738C179.902 246.738 180.683 246.926 181.354 247.301C182.024 247.67 182.544 248.221 182.913 248.954C183.283 249.687 183.467 250.594 183.467 251.673V260H180.919V251.98C180.919 251.031 180.672 250.29 180.178 249.755C179.683 249.216 179.004 248.946 178.141 248.946C177.55 248.946 177.024 249.074 176.564 249.329C176.109 249.585 175.749 249.96 175.482 250.454C175.22 250.943 175.089 251.534 175.089 252.227ZM192.374 265.182C191.334 265.182 190.439 265.045 189.689 264.772C188.945 264.5 188.337 264.139 187.865 263.69C187.393 263.241 187.041 262.75 186.808 262.216L188.999 261.312C189.152 261.562 189.357 261.826 189.612 262.105C189.874 262.389 190.226 262.63 190.669 262.829C191.118 263.028 191.695 263.128 192.399 263.128C193.365 263.128 194.163 262.892 194.794 262.42C195.425 261.954 195.74 261.21 195.74 260.187V257.613H195.578C195.425 257.892 195.203 258.201 194.913 258.542C194.629 258.883 194.237 259.179 193.737 259.429C193.237 259.679 192.587 259.804 191.786 259.804C190.751 259.804 189.82 259.562 188.99 259.079C188.166 258.591 187.513 257.872 187.03 256.923C186.553 255.969 186.314 254.795 186.314 253.403C186.314 252.011 186.55 250.818 187.021 249.824C187.499 248.829 188.152 248.068 188.982 247.54C189.811 247.005 190.751 246.738 191.803 246.738C192.615 246.738 193.271 246.875 193.771 247.147C194.271 247.415 194.661 247.727 194.939 248.085C195.223 248.443 195.442 248.758 195.595 249.031H195.783V246.909H198.28V260.29C198.28 261.415 198.018 262.338 197.496 263.059C196.973 263.781 196.266 264.315 195.374 264.662C194.487 265.008 193.487 265.182 192.374 265.182ZM192.348 257.69C193.081 257.69 193.7 257.52 194.206 257.179C194.717 256.832 195.104 256.338 195.365 255.696C195.632 255.048 195.766 254.272 195.766 253.369C195.766 252.488 195.635 251.713 195.374 251.042C195.112 250.372 194.729 249.849 194.223 249.474C193.717 249.094 193.092 248.903 192.348 248.903C191.581 248.903 190.942 249.102 190.43 249.5C189.919 249.892 189.533 250.426 189.271 251.102C189.016 251.778 188.888 252.534 188.888 253.369C188.888 254.227 189.018 254.98 189.28 255.628C189.541 256.275 189.928 256.781 190.439 257.145C190.956 257.508 191.592 257.69 192.348 257.69ZM214.16 246.909V248.954H207.009V246.909H214.16ZM208.927 243.772H211.475V256.156C211.475 256.65 211.549 257.022 211.697 257.272C211.844 257.517 212.035 257.684 212.268 257.775C212.506 257.861 212.765 257.903 213.043 257.903C213.248 257.903 213.427 257.889 213.58 257.861C213.734 257.832 213.853 257.809 213.938 257.792L214.398 259.897C214.251 259.954 214.04 260.011 213.768 260.068C213.495 260.13 213.154 260.165 212.745 260.17C212.075 260.182 211.45 260.062 210.87 259.812C210.29 259.562 209.822 259.176 209.464 258.653C209.106 258.13 208.927 257.474 208.927 256.684V243.772ZM219.808 252.227V260H217.26V242.545H219.774V249.04H219.936C220.243 248.335 220.712 247.775 221.342 247.361C221.973 246.946 222.797 246.738 223.814 246.738C224.712 246.738 225.496 246.923 226.166 247.292C226.842 247.662 227.365 248.213 227.734 248.946C228.109 249.673 228.297 250.582 228.297 251.673V260H225.749V251.98C225.749 251.02 225.501 250.275 225.007 249.747C224.513 249.213 223.825 248.946 222.945 248.946C222.342 248.946 221.803 249.074 221.325 249.329C220.854 249.585 220.482 249.96 220.209 250.454C219.942 250.943 219.808 251.534 219.808 252.227ZM237.339 260.264C236.05 260.264 234.939 259.988 234.007 259.437C233.081 258.88 232.365 258.099 231.859 257.094C231.359 256.082 231.109 254.897 231.109 253.54C231.109 252.199 231.359 251.017 231.859 249.994C232.365 248.971 233.07 248.173 233.973 247.599C234.882 247.025 235.945 246.738 237.161 246.738C237.899 246.738 238.615 246.861 239.308 247.105C240.001 247.349 240.624 247.733 241.175 248.255C241.726 248.778 242.161 249.457 242.479 250.292C242.797 251.122 242.956 252.13 242.956 253.318V254.221H232.55V252.312H240.459C240.459 251.642 240.322 251.048 240.05 250.531C239.777 250.008 239.393 249.596 238.899 249.295C238.411 248.994 237.837 248.844 237.178 248.844C236.462 248.844 235.837 249.02 235.303 249.372C234.774 249.719 234.365 250.173 234.075 250.736C233.791 251.292 233.649 251.897 233.649 252.551V254.042C233.649 254.917 233.803 255.662 234.109 256.275C234.422 256.889 234.857 257.358 235.413 257.682C235.97 258 236.621 258.159 237.365 258.159C237.848 258.159 238.288 258.091 238.686 257.954C239.084 257.812 239.428 257.602 239.717 257.324C240.007 257.045 240.229 256.701 240.382 256.292L242.794 256.727C242.601 257.437 242.254 258.059 241.754 258.594C241.26 259.122 240.638 259.534 239.888 259.829C239.143 260.119 238.294 260.264 237.339 260.264ZM252.339 242.545H255.536L261.092 256.113H261.297L266.854 242.545H270.05V260H267.544V247.369H267.382L262.234 259.974H260.155L255.007 247.361H254.845V260H252.339V242.545ZM277.484 260.29C276.654 260.29 275.904 260.136 275.234 259.829C274.563 259.517 274.032 259.065 273.64 258.474C273.254 257.883 273.06 257.159 273.06 256.301C273.06 255.562 273.202 254.954 273.487 254.477C273.771 254 274.154 253.622 274.637 253.344C275.12 253.065 275.66 252.855 276.256 252.713C276.853 252.571 277.461 252.463 278.08 252.389C278.864 252.298 279.501 252.224 279.989 252.167C280.478 252.105 280.833 252.005 281.055 251.869C281.276 251.733 281.387 251.511 281.387 251.204V251.145C281.387 250.4 281.177 249.824 280.756 249.415C280.342 249.005 279.722 248.801 278.898 248.801C278.04 248.801 277.364 248.991 276.87 249.372C276.381 249.747 276.043 250.165 275.856 250.625L273.461 250.079C273.745 249.284 274.16 248.642 274.705 248.153C275.256 247.659 275.89 247.301 276.606 247.079C277.322 246.852 278.075 246.738 278.864 246.738C279.387 246.738 279.941 246.801 280.526 246.926C281.117 247.045 281.668 247.267 282.18 247.591C282.697 247.915 283.12 248.378 283.45 248.98C283.779 249.576 283.944 250.352 283.944 251.307V260H281.455V258.21H281.353C281.188 258.54 280.941 258.863 280.612 259.182C280.282 259.5 279.859 259.764 279.342 259.974C278.825 260.184 278.205 260.29 277.484 260.29ZM278.038 258.244C278.742 258.244 279.344 258.105 279.844 257.826C280.35 257.548 280.734 257.184 280.995 256.736C281.262 256.281 281.396 255.795 281.396 255.278V253.591C281.305 253.682 281.129 253.767 280.867 253.846C280.612 253.92 280.319 253.986 279.989 254.042C279.66 254.094 279.339 254.142 279.026 254.187C278.714 254.227 278.452 254.261 278.242 254.29C277.748 254.352 277.296 254.457 276.887 254.605C276.484 254.753 276.16 254.966 275.915 255.244C275.677 255.517 275.558 255.88 275.558 256.335C275.558 256.966 275.79 257.443 276.256 257.767C276.722 258.085 277.316 258.244 278.038 258.244ZM287.338 260V246.909H289.801V248.988H289.938C290.176 248.284 290.597 247.73 291.199 247.326C291.807 246.917 292.494 246.713 293.261 246.713C293.42 246.713 293.608 246.719 293.824 246.73C294.045 246.741 294.219 246.755 294.344 246.772V249.21C294.241 249.182 294.06 249.15 293.798 249.116C293.537 249.076 293.276 249.057 293.014 249.057C292.412 249.057 291.875 249.184 291.403 249.44C290.938 249.69 290.568 250.04 290.295 250.488C290.023 250.932 289.886 251.437 289.886 252.005V260H287.338ZM298.893 255.559L298.876 252.449H299.319L304.535 246.909H307.586L301.637 253.216H301.237L298.893 255.559ZM296.549 260V242.545H299.097V260H296.549ZM304.816 260L300.129 253.778L301.884 251.997L307.944 260H304.816ZM315.011 260.264C313.722 260.264 312.611 259.988 311.679 259.437C310.753 258.88 310.037 258.099 309.531 257.094C309.031 256.082 308.781 254.897 308.781 253.54C308.781 252.199 309.031 251.017 309.531 249.994C310.037 248.971 310.741 248.173 311.645 247.599C312.554 247.025 313.616 246.738 314.832 246.738C315.571 246.738 316.287 246.861 316.98 247.105C317.673 247.349 318.295 247.733 318.847 248.255C319.398 248.778 319.832 249.457 320.151 250.292C320.469 251.122 320.628 252.13 320.628 253.318V254.221H310.222V252.312H318.131C318.131 251.642 317.994 251.048 317.722 250.531C317.449 250.008 317.065 249.596 316.571 249.295C316.082 248.994 315.509 248.844 314.849 248.844C314.134 248.844 313.509 249.02 312.974 249.372C312.446 249.719 312.037 250.173 311.747 250.736C311.463 251.292 311.321 251.897 311.321 252.551V254.042C311.321 254.917 311.474 255.662 311.781 256.275C312.094 256.889 312.528 257.358 313.085 257.682C313.642 258 314.293 258.159 315.037 258.159C315.52 258.159 315.96 258.091 316.358 257.954C316.756 257.812 317.099 257.602 317.389 257.324C317.679 257.045 317.901 256.701 318.054 256.292L320.466 256.727C320.273 257.437 319.926 258.059 319.426 258.594C318.932 259.122 318.31 259.534 317.56 259.829C316.815 260.119 315.966 260.264 315.011 260.264ZM329.566 246.909V248.954H322.415V246.909H329.566ZM324.333 243.772H326.881V256.156C326.881 256.65 326.955 257.022 327.103 257.272C327.251 257.517 327.441 257.684 327.674 257.775C327.913 257.861 328.171 257.903 328.45 257.903C328.654 257.903 328.833 257.889 328.987 257.861C329.14 257.832 329.259 257.809 329.344 257.792L329.805 259.897C329.657 259.954 329.447 260.011 329.174 260.068C328.901 260.13 328.56 260.165 328.151 260.17C327.481 260.182 326.856 260.062 326.276 259.812C325.697 259.562 325.228 259.176 324.87 258.653C324.512 258.13 324.333 257.474 324.333 256.684V243.772Z" fill="white"/>
<rect x="441" y="117" width="108" height="108" rx="54" fill="url(#paint6_linear_150_922)"/>
<rect x="452" y="128" width="86" height="86" rx="43" fill="white"/>
<rect x="452" y="128" width="86" height="86" rx="43" stroke="url(#paint7_linear_150_922)" stroke-width="2"/>
<path d="M494.87 149.788L489.649 161.943H484.427C483.56 161.943 482.715 162.008 481.892 162.181L484.059 156.981L484.145 156.786L484.275 156.44C484.34 156.288 484.384 156.158 484.449 156.05C486.962 150.221 489.779 148.401 494.87 149.788Z" fill="url(#paint8_linear_150_922)"/>
<path d="M509.582 162.528L509.539 162.506C508.239 162.138 506.917 161.943 505.574 161.943H492.01L496.885 150.611L496.95 150.46C497.254 150.568 497.579 150.72 497.904 150.828L502.692 152.843C505.357 153.948 507.22 155.096 508.369 156.483C508.564 156.743 508.737 156.981 508.91 157.263C509.105 157.566 509.257 157.87 509.344 158.195C509.43 158.39 509.495 158.563 509.539 158.758C509.864 159.863 509.885 161.12 509.582 162.528Z" fill="url(#paint9_linear_150_922)"/>
<path d="M496.127 183.263H496.669C497.319 183.263 497.86 182.678 497.86 181.963C497.86 181.053 497.6 180.923 497.037 180.706L496.127 180.381V183.263Z" fill="url(#paint10_linear_150_922)"/>
<path d="M508.629 165.626C507.654 165.345 506.635 165.193 505.574 165.193H484.427C482.954 165.193 481.567 165.475 480.267 166.038C476.497 167.663 473.854 171.411 473.854 175.766V179.991C473.854 180.511 473.897 181.01 473.962 181.53C474.439 188.42 478.122 192.103 485.012 192.558C485.51 192.623 486.009 192.666 486.55 192.666H503.45C511.467 192.666 515.692 188.853 516.104 181.27C516.125 180.858 516.147 180.425 516.147 179.991V175.766C516.147 170.978 512.962 166.948 508.629 165.626ZM497.774 178.583C498.77 178.93 500.114 179.666 500.114 181.963C500.114 183.935 498.575 185.516 496.669 185.516H496.127V185.993C496.127 186.621 495.629 187.12 495 187.12C494.372 187.12 493.874 186.621 493.874 185.993V185.516H493.679C491.599 185.516 489.887 183.761 489.887 181.595C489.887 180.966 490.385 180.468 491.014 180.468C491.642 180.468 492.14 180.966 492.14 181.595C492.14 182.505 492.834 183.263 493.679 183.263H493.874V179.601L492.227 179.016C491.23 178.67 489.887 177.933 489.887 175.636C489.887 173.665 491.425 172.083 493.332 172.083H493.874V171.606C493.874 170.978 494.372 170.48 495 170.48C495.629 170.48 496.127 170.978 496.127 171.606V172.083H496.322C498.402 172.083 500.114 173.838 500.114 176.005C500.114 176.633 499.615 177.131 498.987 177.131C498.359 177.131 497.86 176.633 497.86 176.005C497.86 175.095 497.167 174.336 496.322 174.336H496.127V177.998L497.774 178.583Z" fill="url(#paint11_linear_150_922)"/>
<path d="M492.14 175.636C492.14 176.546 492.4 176.676 492.964 176.893L493.874 177.218V174.336H493.332C492.66 174.336 492.14 174.921 492.14 175.636Z" fill="url(#paint12_linear_150_922)"/>
<path d="M428.376 248.221H425.717C425.614 247.653 425.424 247.153 425.146 246.721C424.867 246.29 424.526 245.923 424.123 245.622C423.719 245.321 423.268 245.094 422.768 244.94C422.273 244.787 421.748 244.71 421.191 244.71C420.185 244.71 419.285 244.963 418.489 245.469C417.7 245.974 417.075 246.716 416.614 247.693C416.16 248.67 415.933 249.863 415.933 251.272C415.933 252.693 416.16 253.892 416.614 254.869C417.075 255.846 417.702 256.585 418.498 257.085C419.293 257.585 420.188 257.835 421.183 257.835C421.734 257.835 422.256 257.761 422.751 257.613C423.251 257.46 423.702 257.236 424.106 256.94C424.509 256.645 424.85 256.284 425.129 255.858C425.413 255.426 425.609 254.932 425.717 254.375L428.376 254.383C428.234 255.241 427.958 256.031 427.549 256.753C427.146 257.469 426.626 258.088 425.989 258.611C425.359 259.128 424.637 259.528 423.825 259.812C423.012 260.096 422.126 260.238 421.165 260.238C419.654 260.238 418.308 259.88 417.126 259.165C415.944 258.443 415.012 257.412 414.33 256.071C413.654 254.73 413.316 253.13 413.316 251.272C413.316 249.409 413.657 247.809 414.339 246.474C415.021 245.133 415.952 244.105 417.134 243.389C418.316 242.667 419.66 242.307 421.165 242.307C422.092 242.307 422.955 242.44 423.756 242.707C424.563 242.969 425.288 243.355 425.93 243.866C426.572 244.372 427.103 244.991 427.523 245.724C427.944 246.451 428.228 247.284 428.376 248.221ZM436.837 260.264C435.609 260.264 434.538 259.983 433.624 259.42C432.709 258.858 431.999 258.071 431.493 257.059C430.987 256.048 430.734 254.866 430.734 253.514C430.734 252.156 430.987 250.969 431.493 249.951C431.999 248.934 432.709 248.145 433.624 247.582C434.538 247.02 435.609 246.738 436.837 246.738C438.064 246.738 439.135 247.02 440.05 247.582C440.964 248.145 441.675 248.934 442.18 249.951C442.686 250.969 442.939 252.156 442.939 253.514C442.939 254.866 442.686 256.048 442.18 257.059C441.675 258.071 440.964 258.858 440.05 259.42C439.135 259.983 438.064 260.264 436.837 260.264ZM436.845 258.125C437.641 258.125 438.3 257.915 438.822 257.494C439.345 257.074 439.732 256.514 439.982 255.815C440.237 255.116 440.365 254.346 440.365 253.505C440.365 252.67 440.237 251.903 439.982 251.204C439.732 250.5 439.345 249.934 438.822 249.508C438.3 249.082 437.641 248.869 436.845 248.869C436.044 248.869 435.379 249.082 434.851 249.508C434.328 249.934 433.939 250.5 433.683 251.204C433.433 251.903 433.308 252.67 433.308 253.505C433.308 254.346 433.433 255.116 433.683 255.815C433.939 256.514 434.328 257.074 434.851 257.494C435.379 257.915 436.044 258.125 436.845 258.125ZM455.593 250.105L453.283 250.514C453.187 250.219 453.033 249.937 452.823 249.67C452.619 249.403 452.34 249.184 451.988 249.014C451.636 248.844 451.195 248.758 450.667 248.758C449.945 248.758 449.343 248.92 448.86 249.244C448.377 249.562 448.136 249.974 448.136 250.48C448.136 250.917 448.298 251.27 448.621 251.537C448.945 251.804 449.468 252.022 450.19 252.193L452.269 252.67C453.474 252.949 454.371 253.378 454.962 253.957C455.553 254.537 455.849 255.29 455.849 256.216C455.849 257 455.621 257.699 455.167 258.312C454.718 258.92 454.09 259.397 453.283 259.744C452.482 260.091 451.553 260.264 450.496 260.264C449.031 260.264 447.835 259.951 446.908 259.326C445.982 258.696 445.414 257.801 445.204 256.642L447.667 256.267C447.82 256.909 448.136 257.395 448.613 257.724C449.09 258.048 449.712 258.21 450.479 258.21C451.315 258.21 451.982 258.037 452.482 257.69C452.982 257.338 453.232 256.909 453.232 256.403C453.232 255.994 453.079 255.65 452.772 255.372C452.471 255.094 452.008 254.883 451.383 254.741L449.167 254.255C447.945 253.977 447.042 253.534 446.457 252.926C445.877 252.318 445.587 251.548 445.587 250.616C445.587 249.844 445.803 249.167 446.235 248.588C446.667 248.008 447.263 247.557 448.025 247.233C448.786 246.903 449.658 246.738 450.641 246.738C452.056 246.738 453.17 247.045 453.982 247.659C454.795 248.267 455.332 249.082 455.593 250.105ZM464.761 246.909V248.954H457.611V246.909H464.761ZM459.528 243.772H462.077V256.156C462.077 256.65 462.151 257.022 462.298 257.272C462.446 257.517 462.636 257.684 462.869 257.775C463.108 257.861 463.366 257.903 463.645 257.903C463.849 257.903 464.028 257.889 464.182 257.861C464.335 257.832 464.455 257.809 464.54 257.792L465 259.897C464.852 259.954 464.642 260.011 464.369 260.068C464.097 260.13 463.756 260.165 463.347 260.17C462.676 260.182 462.051 260.062 461.472 259.812C460.892 259.562 460.423 259.176 460.065 258.653C459.707 258.13 459.528 257.474 459.528 256.684V243.772ZM474.848 251.52V253.727H467.109V251.52H474.848ZM478.449 260V242.545H489.392V244.812H481.082V250.13H488.821V252.389H481.082V257.733H489.494V260H478.449ZM498.935 246.909V248.954H491.538V246.909H498.935ZM493.566 260V245.392C493.566 244.574 493.745 243.895 494.103 243.355C494.461 242.809 494.935 242.403 495.526 242.136C496.117 241.863 496.759 241.727 497.452 241.727C497.964 241.727 498.401 241.77 498.765 241.855C499.129 241.934 499.398 242.008 499.575 242.076L498.978 244.139C498.859 244.105 498.705 244.065 498.518 244.02C498.33 243.969 498.103 243.943 497.836 243.943C497.217 243.943 496.773 244.096 496.506 244.403C496.245 244.71 496.114 245.153 496.114 245.733V260H493.566ZM507.795 246.909V248.954H500.397V246.909H507.795ZM502.425 260V245.392C502.425 244.574 502.604 243.895 502.962 243.355C503.32 242.809 503.795 242.403 504.386 242.136C504.977 241.863 505.619 241.727 506.312 241.727C506.823 241.727 507.261 241.77 507.624 241.855C507.988 241.934 508.258 242.008 508.434 242.076L507.837 244.139C507.718 244.105 507.565 244.065 507.377 244.02C507.19 243.969 506.962 243.943 506.695 243.943C506.076 243.943 505.633 244.096 505.366 244.403C505.104 244.71 504.974 245.153 504.974 245.733V260H502.425ZM515.55 260.264C514.261 260.264 513.15 259.988 512.218 259.437C511.292 258.88 510.576 258.099 510.07 257.094C509.57 256.082 509.32 254.897 509.32 253.54C509.32 252.199 509.57 251.017 510.07 249.994C510.576 248.971 511.281 248.173 512.184 247.599C513.093 247.025 514.156 246.738 515.371 246.738C516.11 246.738 516.826 246.861 517.519 247.105C518.212 247.349 518.835 247.733 519.386 248.255C519.937 248.778 520.371 249.457 520.69 250.292C521.008 251.122 521.167 252.13 521.167 253.318V254.221H510.761V252.312H518.67C518.67 251.642 518.533 251.048 518.261 250.531C517.988 250.008 517.604 249.596 517.11 249.295C516.621 248.994 516.048 248.844 515.388 248.844C514.673 248.844 514.048 249.02 513.513 249.372C512.985 249.719 512.576 250.173 512.286 250.736C512.002 251.292 511.86 251.897 511.86 252.551V254.042C511.86 254.917 512.013 255.662 512.32 256.275C512.633 256.889 513.067 257.358 513.624 257.682C514.181 258 514.832 258.159 515.576 258.159C516.059 258.159 516.499 258.091 516.897 257.954C517.295 257.812 517.638 257.602 517.928 257.324C518.218 257.045 518.44 256.701 518.593 256.292L521.005 256.727C520.812 257.437 520.465 258.059 519.965 258.594C519.471 259.122 518.849 259.534 518.099 259.829C517.354 260.119 516.505 260.264 515.55 260.264ZM529.509 260.264C528.241 260.264 527.151 259.977 526.236 259.403C525.327 258.824 524.628 258.025 524.139 257.008C523.651 255.991 523.406 254.826 523.406 253.514C523.406 252.184 523.656 251.011 524.156 249.994C524.656 248.971 525.361 248.173 526.27 247.599C527.179 247.025 528.25 246.738 529.483 246.738C530.477 246.738 531.364 246.923 532.142 247.292C532.92 247.656 533.548 248.167 534.026 248.826C534.509 249.486 534.795 250.255 534.886 251.136H532.406C532.27 250.522 531.957 249.994 531.469 249.551C530.986 249.108 530.338 248.886 529.526 248.886C528.815 248.886 528.193 249.074 527.659 249.449C527.131 249.818 526.719 250.346 526.423 251.034C526.128 251.716 525.98 252.522 525.98 253.454C525.98 254.409 526.125 255.233 526.415 255.926C526.705 256.619 527.114 257.156 527.642 257.537C528.176 257.917 528.804 258.108 529.526 258.108C530.009 258.108 530.446 258.02 530.838 257.844C531.236 257.662 531.568 257.403 531.835 257.068C532.108 256.733 532.298 256.329 532.406 255.858H534.886C534.795 256.704 534.52 257.46 534.06 258.125C533.599 258.79 532.983 259.312 532.21 259.693C531.443 260.074 530.543 260.264 529.509 260.264ZM543.722 246.909V248.954H536.572V246.909H543.722ZM538.489 243.772H541.038V256.156C541.038 256.65 541.112 257.022 541.259 257.272C541.407 257.517 541.597 257.684 541.83 257.775C542.069 257.861 542.327 257.903 542.606 257.903C542.81 257.903 542.989 257.889 543.143 257.861C543.296 257.832 543.415 257.809 543.501 257.792L543.961 259.897C543.813 259.954 543.603 260.011 543.33 260.068C543.058 260.13 542.717 260.165 542.308 260.17C541.637 260.182 541.012 260.062 540.433 259.812C539.853 259.562 539.384 259.176 539.026 258.653C538.668 258.13 538.489 257.474 538.489 256.684V243.772ZM546.541 260V246.909H549.089V260H546.541ZM547.828 244.889C547.385 244.889 547.004 244.741 546.686 244.446C546.374 244.145 546.217 243.787 546.217 243.372C546.217 242.951 546.374 242.594 546.686 242.298C547.004 241.997 547.385 241.846 547.828 241.846C548.271 241.846 548.649 241.997 548.962 242.298C549.28 242.594 549.439 242.951 549.439 243.372C549.439 243.787 549.28 244.145 548.962 244.446C548.649 244.741 548.271 244.889 547.828 244.889ZM563.717 246.909L558.969 260H556.242L551.487 246.909H554.222L557.538 256.983H557.674L560.981 246.909H563.717ZM571.308 260.264C570.018 260.264 568.908 259.988 567.976 259.437C567.05 258.88 566.334 258.099 565.828 257.094C565.328 256.082 565.078 254.897 565.078 253.54C565.078 252.199 565.328 251.017 565.828 249.994C566.334 248.971 567.038 248.173 567.942 247.599C568.851 247.025 569.913 246.738 571.129 246.738C571.868 246.738 572.584 246.861 573.277 247.105C573.97 247.349 574.592 247.733 575.143 248.255C575.695 248.778 576.129 249.457 576.447 250.292C576.766 251.122 576.925 252.13 576.925 253.318V254.221H566.518V252.312H574.428C574.428 251.642 574.291 251.048 574.018 250.531C573.746 250.008 573.362 249.596 572.868 249.295C572.379 248.994 571.805 248.844 571.146 248.844C570.43 248.844 569.805 249.02 569.271 249.372C568.743 249.719 568.334 250.173 568.044 250.736C567.76 251.292 567.618 251.897 567.618 252.551V254.042C567.618 254.917 567.771 255.662 568.078 256.275C568.391 256.889 568.825 257.358 569.382 257.682C569.939 258 570.589 258.159 571.334 258.159C571.817 258.159 572.257 258.091 572.655 257.954C573.053 257.812 573.396 257.602 573.686 257.324C573.976 257.045 574.197 256.701 574.351 256.292L576.763 256.727C576.57 257.437 576.223 258.059 575.723 258.594C575.229 259.122 574.607 259.534 573.857 259.829C573.112 260.119 572.263 260.264 571.308 260.264Z" fill="white"/>
<rect x="731" y="117" width="108" height="108" rx="54" fill="url(#paint13_linear_150_922)"/>
<rect x="742" y="128" width="86" height="86" rx="43" fill="white"/>
<rect x="742" y="128" width="86" height="86" rx="43" stroke="url(#paint14_linear_150_922)" stroke-width="2"/>
<path d="M771.437 179.666C771.675 178.605 771.242 177.088 770.484 176.33L765.219 171.065C763.572 169.418 762.922 167.663 763.399 166.146C763.897 164.63 765.435 163.59 767.732 163.2L774.492 162.073C775.467 161.9 776.659 161.033 777.114 160.145L780.84 152.67C781.924 150.525 783.397 149.333 785 149.333C786.604 149.333 788.077 150.525 789.16 152.67L792.887 160.145C793.169 160.708 793.754 161.25 794.382 161.618L771.047 184.953C770.744 185.256 770.224 184.975 770.31 184.541L771.437 179.666Z" fill="url(#paint15_linear_150_922)"/>
<path d="M799.517 176.33C798.737 177.11 798.304 178.605 798.564 179.666L800.059 186.188C800.687 188.896 800.297 190.933 798.954 191.908C798.412 192.298 797.762 192.493 797.004 192.493C795.899 192.493 794.599 192.081 793.169 191.236L786.82 187.466C785.824 186.881 784.177 186.881 783.18 187.466L776.832 191.236C774.427 192.645 772.369 192.883 771.047 191.908C770.549 191.54 770.18 191.041 769.942 190.391L796.289 164.045C797.285 163.048 798.694 162.593 800.059 162.831L802.247 163.2C804.544 163.59 806.082 164.63 806.58 166.146C807.057 167.663 806.407 169.418 804.76 171.065L799.517 176.33Z" fill="url(#paint16_linear_150_922)"/>
<path d="M683.757 242.545H686.953L692.51 256.113H692.715L698.272 242.545H701.468V260H698.962V247.369H698.8L693.652 259.974H691.573L686.425 247.361H686.263V260H683.757V242.545ZM710.606 260.264C709.379 260.264 708.308 259.983 707.393 259.42C706.478 258.858 705.768 258.071 705.262 257.059C704.757 256.048 704.504 254.866 704.504 253.514C704.504 252.156 704.757 250.969 705.262 249.951C705.768 248.934 706.478 248.145 707.393 247.582C708.308 247.02 709.379 246.738 710.606 246.738C711.833 246.738 712.904 247.02 713.819 247.582C714.734 248.145 715.444 248.934 715.95 249.951C716.456 250.969 716.708 252.156 716.708 253.514C716.708 254.866 716.456 256.048 715.95 257.059C715.444 258.071 714.734 258.858 713.819 259.42C712.904 259.983 711.833 260.264 710.606 260.264ZM710.615 258.125C711.41 258.125 712.069 257.915 712.592 257.494C713.115 257.074 713.501 256.514 713.751 255.815C714.007 255.116 714.135 254.346 714.135 253.505C714.135 252.67 714.007 251.903 713.751 251.204C713.501 250.5 713.115 249.934 712.592 249.508C712.069 249.082 711.41 248.869 710.615 248.869C709.814 248.869 709.149 249.082 708.62 249.508C708.098 249.934 707.708 250.5 707.453 251.204C707.203 251.903 707.078 252.67 707.078 253.505C707.078 254.346 707.203 255.116 707.453 255.815C707.708 256.514 708.098 257.074 708.62 257.494C709.149 257.915 709.814 258.125 710.615 258.125ZM719.553 260V246.909H722.016V248.988H722.152C722.391 248.284 722.811 247.73 723.414 247.326C724.022 246.917 724.709 246.713 725.476 246.713C725.635 246.713 725.823 246.719 726.039 246.73C726.26 246.741 726.434 246.755 726.559 246.772V249.21C726.456 249.182 726.275 249.15 726.013 249.116C725.752 249.076 725.49 249.057 725.229 249.057C724.627 249.057 724.09 249.184 723.618 249.44C723.152 249.69 722.783 250.04 722.51 250.488C722.238 250.932 722.101 251.437 722.101 252.005V260H719.553ZM733.937 260.264C732.647 260.264 731.537 259.988 730.605 259.437C729.679 258.88 728.963 258.099 728.457 257.094C727.957 256.082 727.707 254.897 727.707 253.54C727.707 252.199 727.957 251.017 728.457 249.994C728.963 248.971 729.667 248.173 730.571 247.599C731.48 247.025 732.542 246.738 733.758 246.738C734.497 246.738 735.213 246.861 735.906 247.105C736.599 247.349 737.221 247.733 737.772 248.255C738.324 248.778 738.758 249.457 739.076 250.292C739.395 251.122 739.554 252.13 739.554 253.318V254.221H729.147V252.312H737.056C737.056 251.642 736.92 251.048 736.647 250.531C736.375 250.008 735.991 249.596 735.497 249.295C735.008 248.994 734.434 248.844 733.775 248.844C733.059 248.844 732.434 249.02 731.9 249.372C731.372 249.719 730.963 250.173 730.673 250.736C730.389 251.292 730.247 251.897 730.247 252.551V254.042C730.247 254.917 730.4 255.662 730.707 256.275C731.02 256.889 731.454 257.358 732.011 257.682C732.568 258 733.218 258.159 733.963 258.159C734.446 258.159 734.886 258.091 735.284 257.954C735.681 257.812 736.025 257.602 736.315 257.324C736.605 257.045 736.826 256.701 736.98 256.292L739.392 256.727C739.199 257.437 738.852 258.059 738.352 258.594C737.858 259.122 737.235 259.534 736.485 259.829C735.741 260.119 734.892 260.264 733.937 260.264ZM748.937 260V242.545H755.159C756.517 242.545 757.642 242.792 758.534 243.287C759.426 243.781 760.093 244.457 760.537 245.315C760.98 246.167 761.201 247.128 761.201 248.196C761.201 249.27 760.977 250.236 760.528 251.094C760.085 251.946 759.414 252.622 758.517 253.122C757.625 253.616 756.502 253.863 755.15 253.863H750.872V251.63H754.912C755.77 251.63 756.466 251.483 757 251.187C757.534 250.886 757.926 250.477 758.176 249.96C758.426 249.443 758.551 248.855 758.551 248.196C758.551 247.537 758.426 246.951 758.176 246.44C757.926 245.929 757.531 245.528 756.991 245.238C756.457 244.949 755.752 244.804 754.877 244.804H751.571V260H748.937ZM764.084 260V246.909H766.547V248.988H766.684C766.922 248.284 767.343 247.73 767.945 247.326C768.553 246.917 769.24 246.713 770.007 246.713C770.167 246.713 770.354 246.719 770.57 246.73C770.792 246.741 770.965 246.755 771.09 246.772V249.21C770.988 249.182 770.806 249.15 770.544 249.116C770.283 249.076 770.022 249.057 769.76 249.057C769.158 249.057 768.621 249.184 768.15 249.44C767.684 249.69 767.314 250.04 767.042 250.488C766.769 250.932 766.632 251.437 766.632 252.005V260H764.084ZM778.341 260.264C777.113 260.264 776.042 259.983 775.127 259.42C774.213 258.858 773.502 258.071 772.997 257.059C772.491 256.048 772.238 254.866 772.238 253.514C772.238 252.156 772.491 250.969 772.997 249.951C773.502 248.934 774.213 248.145 775.127 247.582C776.042 247.02 777.113 246.738 778.341 246.738C779.568 246.738 780.639 247.02 781.554 247.582C782.468 248.145 783.179 248.934 783.684 249.951C784.19 250.969 784.443 252.156 784.443 253.514C784.443 254.866 784.19 256.048 783.684 257.059C783.179 258.071 782.468 258.858 781.554 259.42C780.639 259.983 779.568 260.264 778.341 260.264ZM778.349 258.125C779.145 258.125 779.804 257.915 780.326 257.494C780.849 257.074 781.235 256.514 781.485 255.815C781.741 255.116 781.869 254.346 781.869 253.505C781.869 252.67 781.741 251.903 781.485 251.204C781.235 250.5 780.849 249.934 780.326 249.508C779.804 249.082 779.145 248.869 778.349 248.869C777.548 248.869 776.883 249.082 776.355 249.508C775.832 249.934 775.443 250.5 775.187 251.204C774.937 251.903 774.812 252.67 774.812 253.505C774.812 254.346 774.937 255.116 775.187 255.815C775.443 256.514 775.832 257.074 776.355 257.494C776.883 257.915 777.548 258.125 778.349 258.125ZM793.517 246.909V248.954H786.12V246.909H793.517ZM788.148 260V245.392C788.148 244.574 788.327 243.895 788.685 243.355C789.043 242.809 789.517 242.403 790.108 242.136C790.699 241.863 791.341 241.727 792.034 241.727C792.546 241.727 792.983 241.77 793.347 241.855C793.711 241.934 793.98 242.008 794.157 242.076L793.56 244.139C793.441 244.105 793.287 244.065 793.1 244.02C792.912 243.969 792.685 243.943 792.418 243.943C791.799 243.943 791.355 244.096 791.088 244.403C790.827 244.71 790.696 245.153 790.696 245.733V260H788.148ZM801.273 260.264C799.983 260.264 798.873 259.988 797.941 259.437C797.015 258.88 796.299 258.099 795.793 257.094C795.293 256.082 795.043 254.897 795.043 253.54C795.043 252.199 795.293 251.017 795.793 249.994C796.299 248.971 797.003 248.173 797.907 247.599C798.816 247.025 799.878 246.738 801.094 246.738C801.833 246.738 802.549 246.861 803.242 247.105C803.935 247.349 804.557 247.733 805.108 248.255C805.659 248.778 806.094 249.457 806.412 250.292C806.73 251.122 806.89 252.13 806.89 253.318V254.221H796.483V252.312H804.392C804.392 251.642 804.256 251.048 803.983 250.531C803.711 250.008 803.327 249.596 802.833 249.295C802.344 248.994 801.77 248.844 801.111 248.844C800.395 248.844 799.77 249.02 799.236 249.372C798.708 249.719 798.299 250.173 798.009 250.736C797.725 251.292 797.583 251.897 797.583 252.551V254.042C797.583 254.917 797.736 255.662 798.043 256.275C798.355 256.889 798.79 257.358 799.347 257.682C799.904 258 800.554 258.159 801.299 258.159C801.782 258.159 802.222 258.091 802.62 257.954C803.017 257.812 803.361 257.602 803.651 257.324C803.941 257.045 804.162 256.701 804.316 256.292L806.728 256.727C806.534 257.437 806.188 258.059 805.688 258.594C805.194 259.122 804.571 259.534 803.821 259.829C803.077 260.119 802.228 260.264 801.273 260.264ZM819.527 250.105L817.217 250.514C817.12 250.219 816.967 249.937 816.757 249.67C816.552 249.403 816.274 249.184 815.922 249.014C815.569 248.844 815.129 248.758 814.6 248.758C813.879 248.758 813.277 248.92 812.794 249.244C812.311 249.562 812.069 249.974 812.069 250.48C812.069 250.917 812.231 251.27 812.555 251.537C812.879 251.804 813.402 252.022 814.123 252.193L816.203 252.67C817.407 252.949 818.305 253.378 818.896 253.957C819.487 254.537 819.782 255.29 819.782 256.216C819.782 257 819.555 257.699 819.1 258.312C818.652 258.92 818.024 259.397 817.217 259.744C816.416 260.091 815.487 260.264 814.43 260.264C812.964 260.264 811.768 259.951 810.842 259.326C809.916 258.696 809.348 257.801 809.137 256.642L811.6 256.267C811.754 256.909 812.069 257.395 812.547 257.724C813.024 258.048 813.646 258.21 814.413 258.21C815.248 258.21 815.916 258.037 816.416 257.69C816.916 257.338 817.166 256.909 817.166 256.403C817.166 255.994 817.012 255.65 816.706 255.372C816.404 255.094 815.941 254.883 815.316 254.741L813.1 254.255C811.879 253.977 810.975 253.534 810.39 252.926C809.811 252.318 809.521 251.548 809.521 250.616C809.521 249.844 809.737 249.167 810.169 248.588C810.6 248.008 811.197 247.557 811.958 247.233C812.72 246.903 813.592 246.738 814.575 246.738C815.99 246.738 817.103 247.045 817.916 247.659C818.728 248.267 819.265 249.082 819.527 250.105ZM832.394 250.105L830.084 250.514C829.988 250.219 829.834 249.937 829.624 249.67C829.419 249.403 829.141 249.184 828.789 249.014C828.436 248.844 827.996 248.758 827.468 248.758C826.746 248.758 826.144 248.92 825.661 249.244C825.178 249.562 824.936 249.974 824.936 250.48C824.936 250.917 825.098 251.27 825.422 251.537C825.746 251.804 826.269 252.022 826.99 252.193L829.07 252.67C830.275 252.949 831.172 253.378 831.763 253.957C832.354 254.537 832.65 255.29 832.65 256.216C832.65 257 832.422 257.699 831.968 258.312C831.519 258.92 830.891 259.397 830.084 259.744C829.283 260.091 828.354 260.264 827.297 260.264C825.831 260.264 824.635 259.951 823.709 259.326C822.783 258.696 822.215 257.801 822.005 256.642L824.468 256.267C824.621 256.909 824.936 257.395 825.414 257.724C825.891 258.048 826.513 258.21 827.28 258.21C828.115 258.21 828.783 258.037 829.283 257.69C829.783 257.338 830.033 256.909 830.033 256.403C830.033 255.994 829.88 255.65 829.573 255.372C829.272 255.094 828.809 254.883 828.184 254.741L825.968 254.255C824.746 253.977 823.843 253.534 823.257 252.926C822.678 252.318 822.388 251.548 822.388 250.616C822.388 249.844 822.604 249.167 823.036 248.588C823.468 248.008 824.064 247.557 824.826 247.233C825.587 246.903 826.459 246.738 827.442 246.738C828.857 246.738 829.971 247.045 830.783 247.659C831.596 248.267 832.132 249.082 832.394 250.105ZM835.451 260V246.909H838V260H835.451ZM836.738 244.889C836.295 244.889 835.914 244.741 835.596 244.446C835.284 244.145 835.127 243.787 835.127 243.372C835.127 242.951 835.284 242.594 835.596 242.298C835.914 241.997 836.295 241.846 836.738 241.846C837.181 241.846 837.559 241.997 837.872 242.298C838.19 242.594 838.349 242.951 838.349 243.372C838.349 243.787 838.19 244.145 837.872 244.446C837.559 244.741 837.181 244.889 836.738 244.889ZM846.942 260.264C845.715 260.264 844.644 259.983 843.729 259.42C842.814 258.858 842.104 258.071 841.598 257.059C841.093 256.048 840.84 254.866 840.84 253.514C840.84 252.156 841.093 250.969 841.598 249.951C842.104 248.934 842.814 248.145 843.729 247.582C844.644 247.02 845.715 246.738 846.942 246.738C848.169 246.738 849.24 247.02 850.155 247.582C851.07 248.145 851.78 248.934 852.286 249.951C852.792 250.969 853.044 252.156 853.044 253.514C853.044 254.866 852.792 256.048 852.286 257.059C851.78 258.071 851.07 258.858 850.155 259.42C849.24 259.983 848.169 260.264 846.942 260.264ZM846.951 258.125C847.746 258.125 848.405 257.915 848.928 257.494C849.451 257.074 849.837 256.514 850.087 255.815C850.343 255.116 850.471 254.346 850.471 253.505C850.471 252.67 850.343 251.903 850.087 251.204C849.837 250.5 849.451 249.934 848.928 249.508C848.405 249.082 847.746 248.869 846.951 248.869C846.15 248.869 845.485 249.082 844.956 249.508C844.434 249.934 844.044 250.5 843.789 251.204C843.539 251.903 843.414 252.67 843.414 253.505C843.414 254.346 843.539 255.116 843.789 255.815C844.044 256.514 844.434 257.074 844.956 257.494C845.485 257.915 846.15 258.125 846.951 258.125ZM858.437 252.227V260H855.889V246.909H858.335V249.04H858.497C858.798 248.346 859.27 247.79 859.912 247.369C860.559 246.949 861.375 246.738 862.358 246.738C863.25 246.738 864.031 246.926 864.701 247.301C865.372 247.67 865.892 248.221 866.261 248.954C866.63 249.687 866.815 250.594 866.815 251.673V260H864.267V251.98C864.267 251.031 864.02 250.29 863.525 249.755C863.031 249.216 862.352 248.946 861.488 248.946C860.897 248.946 860.372 249.074 859.912 249.329C859.457 249.585 859.096 249.96 858.829 250.454C858.568 250.943 858.437 251.534 858.437 252.227ZM874.042 260.29C873.213 260.29 872.463 260.136 871.792 259.829C871.122 259.517 870.591 259.065 870.199 258.474C869.812 257.883 869.619 257.159 869.619 256.301C869.619 255.562 869.761 254.954 870.045 254.477C870.329 254 870.713 253.622 871.196 253.344C871.679 253.065 872.218 252.855 872.815 252.713C873.412 252.571 874.02 252.463 874.639 252.389C875.423 252.298 876.059 252.224 876.548 252.167C877.037 252.105 877.392 252.005 877.613 251.869C877.835 251.733 877.946 251.511 877.946 251.204V251.145C877.946 250.4 877.735 249.824 877.315 249.415C876.9 249.005 876.281 248.801 875.457 248.801C874.599 248.801 873.923 248.991 873.429 249.372C872.94 249.747 872.602 250.165 872.414 250.625L870.02 250.079C870.304 249.284 870.718 248.642 871.264 248.153C871.815 247.659 872.449 247.301 873.164 247.079C873.88 246.852 874.633 246.738 875.423 246.738C875.946 246.738 876.5 246.801 877.085 246.926C877.676 247.045 878.227 247.267 878.738 247.591C879.255 247.915 879.679 248.378 880.008 248.98C880.338 249.576 880.502 250.352 880.502 251.307V260H878.014V258.21H877.912C877.747 258.54 877.5 258.863 877.17 259.182C876.841 259.5 876.417 259.764 875.9 259.974C875.383 260.184 874.764 260.29 874.042 260.29ZM874.596 258.244C875.301 258.244 875.903 258.105 876.403 257.826C876.909 257.548 877.292 257.184 877.554 256.736C877.821 256.281 877.954 255.795 877.954 255.278V253.591C877.863 253.682 877.687 253.767 877.426 253.846C877.17 253.92 876.877 253.986 876.548 254.042C876.218 254.094 875.897 254.142 875.585 254.187C875.272 254.227 875.011 254.261 874.801 254.29C874.306 254.352 873.855 254.457 873.446 254.605C873.042 254.753 872.718 254.966 872.474 255.244C872.235 255.517 872.116 255.88 872.116 256.335C872.116 256.966 872.349 257.443 872.815 257.767C873.281 258.085 873.875 258.244 874.596 258.244ZM886.445 242.545V260H883.897V242.545H886.445Z" fill="white"/>
<rect x="1021" y="117" width="108" height="108" rx="54" fill="url(#paint17_linear_150_922)"/>
<rect x="1032" y="128" width="86" height="86" rx="43" fill="white"/>
<rect x="1032" y="128" width="86" height="86" rx="43" stroke="url(#paint18_linear_150_922)" stroke-width="2"/>
<path d="M1068.5 149.333C1062.82 149.333 1058.21 153.948 1058.21 159.625C1058.21 165.193 1062.56 169.7 1068.24 169.895C1068.41 169.873 1068.59 169.873 1068.72 169.895C1068.76 169.895 1068.78 169.895 1068.83 169.895C1068.85 169.895 1068.85 169.895 1068.87 169.895C1074.42 169.7 1078.77 165.193 1078.79 159.625C1078.79 153.948 1074.18 149.333 1068.5 149.333Z" fill="url(#paint19_linear_150_922)"/>
<path d="M1079.51 175.658C1073.46 171.628 1063.6 171.628 1057.52 175.658C1054.76 177.5 1053.25 179.991 1053.25 182.656C1053.25 185.321 1054.76 187.791 1057.49 189.611C1060.53 191.648 1064.51 192.666 1068.5 192.666C1072.49 192.666 1076.47 191.648 1079.51 189.611C1082.24 187.77 1083.75 185.3 1083.75 182.613C1083.73 179.948 1082.24 177.478 1079.51 175.658Z" fill="url(#paint20_linear_150_922)"/>
<path d="M1092.31 160.903C1092.66 165.106 1089.67 168.79 1085.53 169.288C1085.51 169.288 1085.51 169.288 1085.49 169.288H1085.42C1085.29 169.288 1085.16 169.288 1085.05 169.331C1082.95 169.44 1081.02 168.768 1079.57 167.533C1081.8 165.54 1083.08 162.55 1082.82 159.3C1082.67 157.545 1082.06 155.941 1081.15 154.576C1081.98 154.165 1082.93 153.905 1083.91 153.818C1088.15 153.45 1091.94 156.613 1092.31 160.903Z" fill="url(#paint21_linear_150_922)"/>
<path d="M1096.65 180.945C1096.47 183.046 1095.13 184.866 1092.88 186.101C1090.71 187.293 1087.98 187.856 1085.27 187.791C1086.83 186.383 1087.74 184.628 1087.91 182.765C1088.13 180.078 1086.85 177.5 1084.3 175.441C1082.84 174.293 1081.15 173.383 1079.31 172.711C1084.1 171.325 1090.12 172.256 1093.83 175.246C1095.82 176.85 1096.84 178.865 1096.65 180.945Z" fill="url(#paint22_linear_150_922)"/>
<path d="M1002.16 260H999.366L1005.65 242.545H1008.69L1014.97 260H1012.18L1007.24 245.716H1007.1L1002.16 260ZM1002.63 253.165H1011.7V255.38H1002.63V253.165ZM1022.58 246.909V248.954H1015.43V246.909H1022.58ZM1017.34 243.772H1019.89V256.156C1019.89 256.65 1019.97 257.022 1020.11 257.272C1020.26 257.517 1020.45 257.684 1020.69 257.775C1020.92 257.861 1021.18 257.903 1021.46 257.903C1021.67 257.903 1021.84 257.889 1022 257.861C1022.15 257.832 1022.27 257.809 1022.36 257.792L1022.82 259.897C1022.67 259.954 1022.46 260.011 1022.19 260.068C1021.91 260.13 1021.57 260.165 1021.16 260.17C1020.49 260.182 1019.87 260.062 1019.29 259.812C1018.71 259.562 1018.24 259.176 1017.88 258.653C1017.52 258.13 1017.34 257.474 1017.34 256.684V243.772ZM1031.51 246.909V248.954H1024.36V246.909H1031.51ZM1026.27 243.772H1028.82V256.156C1028.82 256.65 1028.9 257.022 1029.04 257.272C1029.19 257.517 1029.38 257.684 1029.62 257.775C1029.85 257.861 1030.11 257.903 1030.39 257.903C1030.6 257.903 1030.77 257.889 1030.93 257.861C1031.08 257.832 1031.2 257.809 1031.29 257.792L1031.75 259.897C1031.6 259.954 1031.39 260.011 1031.12 260.068C1030.84 260.13 1030.5 260.165 1030.09 260.17C1029.42 260.182 1028.8 260.062 1028.22 259.812C1027.64 259.562 1027.17 259.176 1026.81 258.653C1026.45 258.13 1026.27 257.474 1026.27 256.684V243.772ZM1034.33 260V246.909H1036.79V248.988H1036.93C1037.16 248.284 1037.58 247.73 1038.19 247.326C1038.8 246.917 1039.48 246.713 1040.25 246.713C1040.41 246.713 1040.6 246.719 1040.81 246.73C1041.03 246.741 1041.21 246.755 1041.33 246.772V249.21C1041.23 249.182 1041.05 249.15 1040.79 249.116C1040.53 249.076 1040.26 249.057 1040 249.057C1039.4 249.057 1038.86 249.184 1038.39 249.44C1037.93 249.69 1037.56 250.04 1037.28 250.488C1037.01 250.932 1036.87 251.437 1036.87 252.005V260H1034.33ZM1047.23 260.29C1046.4 260.29 1045.65 260.136 1044.98 259.829C1044.31 259.517 1043.78 259.065 1043.39 258.474C1043 257.883 1042.81 257.159 1042.81 256.301C1042.81 255.562 1042.95 254.954 1043.23 254.477C1043.52 254 1043.9 253.622 1044.38 253.344C1044.87 253.065 1045.41 252.855 1046 252.713C1046.6 252.571 1047.21 252.463 1047.83 252.389C1048.61 252.298 1049.25 252.224 1049.74 252.167C1050.22 252.105 1050.58 252.005 1050.8 251.869C1051.02 251.733 1051.13 251.511 1051.13 251.204V251.145C1051.13 250.4 1050.92 249.824 1050.5 249.415C1050.09 249.005 1049.47 248.801 1048.64 248.801C1047.79 248.801 1047.11 248.991 1046.62 249.372C1046.13 249.747 1045.79 250.165 1045.6 250.625L1043.21 250.079C1043.49 249.284 1043.91 248.642 1044.45 248.153C1045 247.659 1045.64 247.301 1046.35 247.079C1047.07 246.852 1047.82 246.738 1048.61 246.738C1049.13 246.738 1049.69 246.801 1050.27 246.926C1050.86 247.045 1051.41 247.267 1051.93 247.591C1052.44 247.915 1052.87 248.378 1053.2 248.98C1053.53 249.576 1053.69 250.352 1053.69 251.307V260H1051.2V258.21H1051.1C1050.93 258.54 1050.69 258.863 1050.36 259.182C1050.03 259.5 1049.6 259.764 1049.09 259.974C1048.57 260.184 1047.95 260.29 1047.23 260.29ZM1047.78 258.244C1048.49 258.244 1049.09 258.105 1049.59 257.826C1050.1 257.548 1050.48 257.184 1050.74 256.736C1051.01 256.281 1051.14 255.795 1051.14 255.278V253.591C1051.05 253.682 1050.87 253.767 1050.61 253.846C1050.36 253.92 1050.06 253.986 1049.74 254.042C1049.41 254.094 1049.08 254.142 1048.77 254.187C1048.46 254.227 1048.2 254.261 1047.99 254.29C1047.49 254.352 1047.04 254.457 1046.63 254.605C1046.23 254.753 1045.91 254.966 1045.66 255.244C1045.42 255.517 1045.3 255.88 1045.3 256.335C1045.3 256.966 1045.54 257.443 1046 257.767C1046.47 258.085 1047.06 258.244 1047.78 258.244ZM1062.6 260.264C1061.33 260.264 1060.24 259.977 1059.33 259.403C1058.42 258.824 1057.72 258.025 1057.23 257.008C1056.74 255.991 1056.5 254.826 1056.5 253.514C1056.5 252.184 1056.75 251.011 1057.25 249.994C1057.75 248.971 1058.45 248.173 1059.36 247.599C1060.27 247.025 1061.34 246.738 1062.57 246.738C1063.57 246.738 1064.45 246.923 1065.23 247.292C1066.01 247.656 1066.64 248.167 1067.12 248.826C1067.6 249.486 1067.89 250.255 1067.98 251.136H1065.5C1065.36 250.522 1065.05 249.994 1064.56 249.551C1064.08 249.108 1063.43 248.886 1062.62 248.886C1061.91 248.886 1061.28 249.074 1060.75 249.449C1060.22 249.818 1059.81 250.346 1059.51 251.034C1059.22 251.716 1059.07 252.522 1059.07 253.454C1059.07 254.409 1059.21 255.233 1059.5 255.926C1059.79 256.619 1060.2 257.156 1060.73 257.537C1061.27 257.917 1061.89 258.108 1062.62 258.108C1063.1 258.108 1063.54 258.02 1063.93 257.844C1064.33 257.662 1064.66 257.403 1064.93 257.068C1065.2 256.733 1065.39 256.329 1065.5 255.858H1067.98C1067.89 256.704 1067.61 257.46 1067.15 258.125C1066.69 258.79 1066.07 259.312 1065.3 259.693C1064.53 260.074 1063.63 260.264 1062.6 260.264ZM1076.81 246.909V248.954H1069.66V246.909H1076.81ZM1071.58 243.772H1074.13V256.156C1074.13 256.65 1074.2 257.022 1074.35 257.272C1074.5 257.517 1074.69 257.684 1074.92 257.775C1075.16 257.861 1075.42 257.903 1075.7 257.903C1075.9 257.903 1076.08 257.889 1076.23 257.861C1076.39 257.832 1076.51 257.809 1076.59 257.792L1077.05 259.897C1076.9 259.954 1076.69 260.011 1076.42 260.068C1076.15 260.13 1075.81 260.165 1075.4 260.17C1074.73 260.182 1074.1 260.062 1073.52 259.812C1072.94 259.562 1072.47 259.176 1072.12 258.653C1071.76 258.13 1071.58 257.474 1071.58 256.684V243.772ZM1100.68 248.221H1098.03C1097.92 247.653 1097.73 247.153 1097.45 246.721C1097.18 246.29 1096.83 245.923 1096.43 245.622C1096.03 245.321 1095.58 245.094 1095.08 244.94C1094.58 244.787 1094.06 244.71 1093.5 244.71C1092.49 244.71 1091.59 244.963 1090.8 245.469C1090.01 245.974 1089.38 246.716 1088.92 247.693C1088.47 248.67 1088.24 249.863 1088.24 251.272C1088.24 252.693 1088.47 253.892 1088.92 254.869C1089.38 255.846 1090.01 256.585 1090.81 257.085C1091.6 257.585 1092.5 257.835 1093.49 257.835C1094.04 257.835 1094.56 257.761 1095.06 257.613C1095.56 257.46 1096.01 257.236 1096.41 256.94C1096.82 256.645 1097.16 256.284 1097.44 255.858C1097.72 255.426 1097.92 254.932 1098.03 254.375L1100.68 254.383C1100.54 255.241 1100.27 256.031 1099.86 256.753C1099.45 257.469 1098.93 258.088 1098.3 258.611C1097.67 259.128 1096.95 259.528 1096.13 259.812C1095.32 260.096 1094.43 260.238 1093.47 260.238C1091.96 260.238 1090.62 259.88 1089.43 259.165C1088.25 258.443 1087.32 257.412 1086.64 256.071C1085.96 254.73 1085.62 253.13 1085.62 251.272C1085.62 249.409 1085.97 247.809 1086.65 246.474C1087.33 245.133 1088.26 244.105 1089.44 243.389C1090.62 242.667 1091.97 242.307 1093.47 242.307C1094.4 242.307 1095.26 242.44 1096.06 242.707C1096.87 242.969 1097.6 243.355 1098.24 243.866C1098.88 244.372 1099.41 244.991 1099.83 245.724C1100.25 246.451 1100.54 247.284 1100.68 248.221ZM1106.18 242.545V260H1103.63V242.545H1106.18ZM1109.61 260V246.909H1112.16V260H1109.61ZM1110.89 244.889C1110.45 244.889 1110.07 244.741 1109.75 244.446C1109.44 244.145 1109.28 243.787 1109.28 243.372C1109.28 242.951 1109.44 242.594 1109.75 242.298C1110.07 241.997 1110.45 241.846 1110.89 241.846C1111.34 241.846 1111.72 241.997 1112.03 242.298C1112.35 242.594 1112.51 242.951 1112.51 243.372C1112.51 243.787 1112.35 244.145 1112.03 244.446C1111.72 244.741 1111.34 244.889 1110.89 244.889ZM1121.23 260.264C1119.94 260.264 1118.83 259.988 1117.89 259.437C1116.97 258.88 1116.25 258.099 1115.75 257.094C1115.25 256.082 1115 254.897 1115 253.54C1115 252.199 1115.25 251.017 1115.75 249.994C1116.25 248.971 1116.96 248.173 1117.86 247.599C1118.77 247.025 1119.83 246.738 1121.05 246.738C1121.79 246.738 1122.5 246.861 1123.19 247.105C1123.89 247.349 1124.51 247.733 1125.06 248.255C1125.61 248.778 1126.05 249.457 1126.37 250.292C1126.68 251.122 1126.84 252.13 1126.84 253.318V254.221H1116.44V252.312H1124.35C1124.35 251.642 1124.21 251.048 1123.94 250.531C1123.66 250.008 1123.28 249.596 1122.79 249.295C1122.3 248.994 1121.72 248.844 1121.06 248.844C1120.35 248.844 1119.72 249.02 1119.19 249.372C1118.66 249.719 1118.25 250.173 1117.96 250.736C1117.68 251.292 1117.54 251.897 1117.54 252.551V254.042C1117.54 254.917 1117.69 255.662 1118 256.275C1118.31 256.889 1118.74 257.358 1119.3 257.682C1119.86 258 1120.51 258.159 1121.25 258.159C1121.73 258.159 1122.18 258.091 1122.57 257.954C1122.97 257.812 1123.31 257.602 1123.6 257.324C1123.89 257.045 1124.12 256.701 1124.27 256.292L1126.68 256.727C1126.49 257.437 1126.14 258.059 1125.64 258.594C1125.15 259.122 1124.52 259.534 1123.77 259.829C1123.03 260.119 1122.18 260.264 1121.23 260.264ZM1132.22 252.227V260H1129.67V246.909H1132.12V249.04H1132.28C1132.58 248.346 1133.05 247.79 1133.69 247.369C1134.34 246.949 1135.16 246.738 1136.14 246.738C1137.03 246.738 1137.81 246.926 1138.48 247.301C1139.15 247.67 1139.67 248.221 1140.04 248.954C1140.41 249.687 1140.6 250.594 1140.6 251.673V260H1138.05V251.98C1138.05 251.031 1137.8 250.29 1137.31 249.755C1136.81 249.216 1136.13 248.946 1135.27 248.946C1134.68 248.946 1134.15 249.074 1133.69 249.329C1133.24 249.585 1132.88 249.96 1132.61 250.454C1132.35 250.943 1132.22 251.534 1132.22 252.227ZM1150.12 246.909V248.954H1142.97V246.909H1150.12ZM1144.89 243.772H1147.44V256.156C1147.44 256.65 1147.51 257.022 1147.66 257.272C1147.81 257.517 1148 257.684 1148.23 257.775C1148.47 257.861 1148.73 257.903 1149.01 257.903C1149.21 257.903 1149.39 257.889 1149.55 257.861C1149.7 257.832 1149.82 257.809 1149.9 257.792L1150.36 259.897C1150.22 259.954 1150.01 260.011 1149.73 260.068C1149.46 260.13 1149.12 260.165 1148.71 260.17C1148.04 260.182 1147.41 260.062 1146.83 259.812C1146.26 259.562 1145.79 259.176 1145.43 258.653C1145.07 258.13 1144.89 257.474 1144.89 256.684V243.772Z" fill="white"/>
<path d="M373.749 55.9998V32.727H382.658C384.339 32.727 385.737 32.9922 386.851 33.5225C387.972 34.0452 388.809 34.7611 389.362 35.6702C389.923 36.5793 390.203 37.6096 390.203 38.7611C390.203 39.7081 390.021 40.5187 389.658 41.1929C389.294 41.8596 388.805 42.4013 388.192 42.8179C387.578 43.2346 386.893 43.5338 386.135 43.7157V43.9429C386.961 43.9884 387.752 44.2422 388.51 44.7043C389.275 45.1588 389.9 45.8028 390.385 46.6361C390.87 47.4695 391.112 48.477 391.112 49.6588C391.112 50.8634 390.821 51.9467 390.237 52.9088C389.654 53.8634 388.775 54.6172 387.601 55.1702C386.427 55.7232 384.949 55.9998 383.169 55.9998H373.749ZM377.964 52.477H382.499C384.029 52.477 385.131 52.1854 385.805 51.602C386.487 51.0111 386.828 50.2535 386.828 49.3293C386.828 48.6399 386.658 48.0187 386.317 47.4657C385.976 46.9051 385.491 46.4657 384.862 46.1475C384.233 45.8217 383.483 45.6588 382.612 45.6588H377.964V52.477ZM377.964 42.6248H382.135C382.862 42.6248 383.518 42.4922 384.101 42.227C384.684 41.9543 385.143 41.5717 385.476 41.0793C385.817 40.5793 385.987 39.9884 385.987 39.3066C385.987 38.4051 385.669 37.6626 385.033 37.0793C384.404 36.496 383.468 36.2043 382.226 36.2043H377.964V42.6248ZM402.325 56.3407C400.575 56.3407 399.064 55.977 397.791 55.2498C396.526 54.5149 395.553 53.477 394.871 52.1361C394.189 50.7876 393.848 49.2005 393.848 47.3748C393.848 45.5793 394.189 44.0035 394.871 42.6475C395.56 41.2838 396.522 40.2232 397.757 39.4657C398.992 38.7005 400.443 38.3179 402.109 38.3179C403.185 38.3179 404.2 38.4922 405.155 38.8407C406.117 39.1816 406.965 39.7119 407.7 40.4316C408.443 41.1513 409.026 42.0679 409.45 43.1816C409.875 44.2876 410.087 45.6058 410.087 47.1361V48.3975H395.78V45.6248H406.143C406.136 44.8369 405.965 44.1361 405.632 43.5225C405.299 42.9013 404.833 42.4126 404.234 42.0566C403.643 41.7005 402.954 41.5225 402.166 41.5225C401.325 41.5225 400.587 41.727 399.95 42.1361C399.314 42.5376 398.818 43.0679 398.462 43.727C398.113 44.3785 397.935 45.0945 397.928 45.8748V48.2952C397.928 49.3104 398.113 50.1816 398.484 50.9088C398.856 51.6285 399.375 52.1816 400.041 52.5679C400.708 52.9467 401.488 53.1361 402.382 53.1361C402.981 53.1361 403.522 53.0528 404.007 52.8861C404.492 52.7119 404.912 52.4581 405.268 52.1248C405.625 51.7914 405.893 51.3785 406.075 50.8861L409.916 51.3179C409.674 52.3331 409.212 53.2195 408.53 53.977C407.856 54.727 406.992 55.3104 405.939 55.727C404.886 56.1361 403.681 56.3407 402.325 56.3407ZM417.68 45.7725V55.9998H413.567V38.5452H417.499V41.5111H417.703C418.105 40.5338 418.745 39.7573 419.624 39.1816C420.51 38.6058 421.605 38.3179 422.908 38.3179C424.112 38.3179 425.161 38.5755 426.055 39.0907C426.957 39.6058 427.654 40.352 428.146 41.3293C428.646 42.3066 428.893 43.4922 428.885 44.8861V55.9998H424.771V45.5225C424.771 44.3558 424.468 43.4429 423.862 42.7838C423.264 42.1248 422.434 41.7952 421.374 41.7952C420.654 41.7952 420.014 41.9543 419.453 42.2725C418.9 42.5831 418.464 43.0338 418.146 43.6248C417.836 44.2157 417.68 44.9316 417.68 45.7725ZM440.794 56.3407C439.044 56.3407 437.533 55.977 436.26 55.2498C434.995 54.5149 434.021 53.477 433.339 52.1361C432.658 50.7876 432.317 49.2005 432.317 47.3748C432.317 45.5793 432.658 44.0035 433.339 42.6475C434.029 41.2838 434.991 40.2232 436.226 39.4657C437.461 38.7005 438.911 38.3179 440.578 38.3179C441.654 38.3179 442.669 38.4922 443.624 38.8407C444.586 39.1816 445.434 39.7119 446.169 40.4316C446.911 41.1513 447.495 42.0679 447.919 43.1816C448.343 44.2876 448.555 45.6058 448.555 47.1361V48.3975H434.249V45.6248H444.612C444.605 44.8369 444.434 44.1361 444.101 43.5225C443.768 42.9013 443.302 42.4126 442.703 42.0566C442.112 41.7005 441.423 41.5225 440.635 41.5225C439.794 41.5225 439.055 41.727 438.419 42.1361C437.783 42.5376 437.286 43.0679 436.93 43.727C436.582 44.3785 436.404 45.0945 436.396 45.8748V48.2952C436.396 49.3104 436.582 50.1816 436.953 50.9088C437.324 51.6285 437.843 52.1816 438.51 52.5679C439.177 52.9467 439.957 53.1361 440.851 53.1361C441.449 53.1361 441.991 53.0528 442.476 52.8861C442.961 52.7119 443.381 52.4581 443.737 52.1248C444.093 51.7914 444.362 51.3785 444.544 50.8861L448.385 51.3179C448.143 52.3331 447.68 53.2195 446.999 53.977C446.324 54.727 445.461 55.3104 444.408 55.727C443.355 56.1361 442.15 56.3407 440.794 56.3407ZM460.876 38.5452V41.727H450.558V38.5452H460.876ZM453.138 55.9998V36.8975C453.138 35.7232 453.38 34.746 453.865 33.9657C454.357 33.1854 455.017 32.602 455.842 32.2157C456.668 31.8293 457.585 31.6361 458.592 31.6361C459.304 31.6361 459.937 31.6929 460.49 31.8066C461.043 31.9202 461.452 32.0225 461.717 32.1134L460.899 35.2952C460.725 35.2422 460.505 35.1891 460.24 35.1361C459.975 35.0755 459.679 35.0452 459.354 35.0452C458.589 35.0452 458.047 35.2308 457.729 35.602C457.418 35.9657 457.263 36.4884 457.263 37.1702V55.9998H453.138ZM464.098 55.9998V38.5452H468.212V55.9998H464.098ZM466.166 36.0679C465.515 36.0679 464.954 35.852 464.484 35.4202C464.015 34.9808 463.78 34.4543 463.78 33.8407C463.78 33.2195 464.015 32.6929 464.484 32.2611C464.954 31.8217 465.515 31.602 466.166 31.602C466.825 31.602 467.386 31.8217 467.848 32.2611C468.318 32.6929 468.553 33.2195 468.553 33.8407C468.553 34.4543 468.318 34.9808 467.848 35.4202C467.386 35.852 466.825 36.0679 466.166 36.0679ZM481.158 38.5452V41.727H471.124V38.5452H481.158ZM473.601 34.3634H477.714V50.7498C477.714 51.3028 477.798 51.727 477.964 52.0225C478.139 52.3104 478.366 52.5073 478.646 52.6134C478.927 52.7195 479.237 52.7725 479.578 52.7725C479.836 52.7725 480.071 52.7535 480.283 52.7157C480.502 52.6778 480.669 52.6437 480.783 52.6134L481.476 55.8293C481.256 55.9051 480.942 55.9884 480.533 56.0793C480.131 56.1702 479.639 56.2232 479.055 56.2384C478.025 56.2687 477.097 56.1134 476.271 55.7725C475.446 55.424 474.79 54.8861 474.305 54.1588C473.828 53.4316 473.593 52.5225 473.601 51.4316V34.3634ZM500.149 56.3407C498.445 56.3407 496.967 55.9657 495.717 55.2157C494.467 54.4657 493.498 53.4164 492.808 52.0679C492.126 50.7195 491.786 49.1437 491.786 47.3407C491.786 45.5376 492.126 43.9581 492.808 42.602C493.498 41.246 494.467 40.1929 495.717 39.4429C496.967 38.6929 498.445 38.3179 500.149 38.3179C501.854 38.3179 503.331 38.6929 504.581 39.4429C505.831 40.1929 506.797 41.246 507.479 42.602C508.168 43.9581 508.513 45.5376 508.513 47.3407C508.513 49.1437 508.168 50.7195 507.479 52.0679C506.797 53.4164 505.831 54.4657 504.581 55.2157C503.331 55.9657 501.854 56.3407 500.149 56.3407ZM500.172 53.0452C501.096 53.0452 501.869 52.7914 502.49 52.2838C503.111 51.7687 503.573 51.0793 503.876 50.2157C504.187 49.352 504.342 48.3899 504.342 47.3293C504.342 46.2611 504.187 45.2952 503.876 44.4316C503.573 43.5604 503.111 42.8672 502.49 42.352C501.869 41.8369 501.096 41.5793 500.172 41.5793C499.225 41.5793 498.437 41.8369 497.808 42.352C497.187 42.8672 496.721 43.5604 496.411 44.4316C496.107 45.2952 495.956 46.2611 495.956 47.3293C495.956 48.3899 496.107 49.352 496.411 50.2157C496.721 51.0793 497.187 51.7687 497.808 52.2838C498.437 52.7914 499.225 53.0452 500.172 53.0452ZM520.845 38.5452V41.727H510.527V38.5452H520.845ZM513.107 55.9998V36.8975C513.107 35.7232 513.349 34.746 513.834 33.9657C514.326 33.1854 514.985 32.602 515.811 32.2157C516.637 31.8293 517.554 31.6361 518.561 31.6361C519.273 31.6361 519.906 31.6929 520.459 31.8066C521.012 31.9202 521.421 32.0225 521.686 32.1134L520.868 35.2952C520.694 35.2422 520.474 35.1891 520.209 35.1361C519.944 35.0755 519.648 35.0452 519.322 35.0452C518.557 35.0452 518.016 35.2308 517.697 35.602C517.387 35.9657 517.232 36.4884 517.232 37.1702V55.9998H513.107ZM532.004 55.9998V38.5452H536.118V55.9998H532.004ZM534.072 36.0679C533.421 36.0679 532.86 35.852 532.391 35.4202C531.921 34.9808 531.686 34.4543 531.686 33.8407C531.686 33.2195 531.921 32.6929 532.391 32.2611C532.86 31.8217 533.421 31.602 534.072 31.602C534.732 31.602 535.292 31.8217 535.754 32.2611C536.224 32.6929 536.459 33.2195 536.459 33.8407C536.459 34.4543 536.224 34.9808 535.754 35.4202C535.292 35.852 534.732 36.0679 534.072 36.0679ZM540.348 55.9998V38.5452H544.28V41.5111H544.484C544.848 40.5111 545.45 39.7308 546.291 39.1702C547.132 38.602 548.136 38.3179 549.303 38.3179C550.484 38.3179 551.481 38.6058 552.291 39.1816C553.109 39.7498 553.685 40.5263 554.018 41.5111H554.2C554.587 40.5414 555.238 39.7687 556.155 39.1929C557.079 38.6096 558.174 38.3179 559.439 38.3179C561.045 38.3179 562.356 38.8255 563.371 39.8407C564.386 40.8558 564.893 42.3369 564.893 44.2838V55.9998H560.768V44.9202C560.768 43.8369 560.481 43.0452 559.905 42.5452C559.329 42.0376 558.625 41.7838 557.791 41.7838C556.799 41.7838 556.022 42.0945 555.462 42.7157C554.909 43.3293 554.632 44.1285 554.632 45.1134V55.9998H550.598V44.7498C550.598 43.8482 550.325 43.1285 549.78 42.5907C549.242 42.0528 548.537 41.7838 547.666 41.7838C547.075 41.7838 546.537 41.9354 546.053 42.2384C545.568 42.5338 545.181 42.9543 544.893 43.4998C544.606 44.0376 544.462 44.6664 544.462 45.3861V55.9998H540.348ZM569.067 62.5452V38.5452H573.112V41.4316H573.351C573.563 41.0073 573.862 40.5566 574.249 40.0793C574.635 39.5945 575.158 39.1816 575.817 38.8407C576.476 38.4922 577.317 38.3179 578.339 38.3179C579.688 38.3179 580.904 38.6626 581.987 39.352C583.078 40.0338 583.942 41.0452 584.578 42.3861C585.222 43.7195 585.544 45.3558 585.544 47.2952C585.544 49.2119 585.23 50.8407 584.601 52.1816C583.972 53.5225 583.116 54.5452 582.033 55.2498C580.949 55.9543 579.722 56.3066 578.351 56.3066C577.351 56.3066 576.521 56.1399 575.862 55.8066C575.203 55.4732 574.673 55.0717 574.271 54.602C573.877 54.1248 573.571 53.674 573.351 53.2498H573.18V62.5452H569.067ZM573.101 47.2725C573.101 48.4013 573.26 49.3899 573.578 50.2384C573.904 51.0869 574.37 51.7498 574.976 52.227C575.589 52.6967 576.332 52.9316 577.203 52.9316C578.112 52.9316 578.874 52.6891 579.487 52.2043C580.101 51.7119 580.563 51.0414 580.874 50.1929C581.192 49.3369 581.351 48.3634 581.351 47.2725C581.351 46.1891 581.196 45.227 580.885 44.3861C580.574 43.5452 580.112 42.8861 579.499 42.4088C578.885 41.9316 578.12 41.6929 577.203 41.6929C576.324 41.6929 575.578 41.924 574.964 42.3861C574.351 42.8482 573.885 43.496 573.567 44.3293C573.256 45.1626 573.101 46.1437 573.101 47.2725ZM589.067 55.9998V38.5452H593.055V41.4543H593.237C593.555 40.4467 594.101 39.6702 594.874 39.1248C595.654 38.5717 596.544 38.2952 597.544 38.2952C597.771 38.2952 598.025 38.3066 598.305 38.3293C598.593 38.3445 598.832 38.371 599.021 38.4088V42.1929C598.847 42.1323 598.571 42.0793 598.192 42.0338C597.821 41.9808 597.461 41.9543 597.112 41.9543C596.362 41.9543 595.688 42.1172 595.089 42.4429C594.499 42.7611 594.033 43.2043 593.692 43.7725C593.351 44.3407 593.18 44.996 593.18 45.7384V55.9998H589.067ZM608.649 56.3407C606.945 56.3407 605.467 55.9657 604.217 55.2157C602.967 54.4657 601.998 53.4164 601.308 52.0679C600.626 50.7195 600.286 49.1437 600.286 47.3407C600.286 45.5376 600.626 43.9581 601.308 42.602C601.998 41.246 602.967 40.1929 604.217 39.4429C605.467 38.6929 606.945 38.3179 608.649 38.3179C610.354 38.3179 611.831 38.6929 613.081 39.4429C614.331 40.1929 615.297 41.246 615.979 42.602C616.668 43.9581 617.013 45.5376 617.013 47.3407C617.013 49.1437 616.668 50.7195 615.979 52.0679C615.297 53.4164 614.331 54.4657 613.081 55.2157C611.831 55.9657 610.354 56.3407 608.649 56.3407ZM608.672 53.0452C609.596 53.0452 610.369 52.7914 610.99 52.2838C611.611 51.7687 612.073 51.0793 612.376 50.2157C612.687 49.352 612.842 48.3899 612.842 47.3293C612.842 46.2611 612.687 45.2952 612.376 44.4316C612.073 43.5604 611.611 42.8672 610.99 42.352C610.369 41.8369 609.596 41.5793 608.672 41.5793C607.725 41.5793 606.937 41.8369 606.308 42.352C605.687 42.8672 605.221 43.5604 604.911 44.4316C604.607 45.2952 604.456 46.2611 604.456 47.3293C604.456 48.3899 604.607 49.352 604.911 50.2157C605.221 51.0793 605.687 51.7687 606.308 52.2838C606.937 52.7914 607.725 53.0452 608.672 53.0452ZM635.501 38.5452L629.286 55.9998H624.74L618.524 38.5452H622.911L626.922 51.5111H627.104L631.126 38.5452H635.501ZM638.348 55.9998V38.5452H642.462V55.9998H638.348ZM640.416 36.0679C639.765 36.0679 639.204 35.852 638.734 35.4202C638.265 34.9808 638.03 34.4543 638.03 33.8407C638.03 33.2195 638.265 32.6929 638.734 32.2611C639.204 31.8217 639.765 31.602 640.416 31.602C641.075 31.602 641.636 31.8217 642.098 32.2611C642.568 32.6929 642.803 33.2195 642.803 33.8407C642.803 34.4543 642.568 34.9808 642.098 35.4202C641.636 35.852 641.075 36.0679 640.416 36.0679ZM650.805 45.7725V55.9998H646.692V38.5452H650.624V41.5111H650.828C651.23 40.5338 651.87 39.7573 652.749 39.1816C653.635 38.6058 654.73 38.3179 656.033 38.3179C657.237 38.3179 658.286 38.5755 659.18 39.0907C660.082 39.6058 660.779 40.352 661.271 41.3293C661.771 42.3066 662.018 43.4922 662.01 44.8861V55.9998H657.896V45.5225C657.896 44.3558 657.593 43.4429 656.987 42.7838C656.389 42.1248 655.559 41.7952 654.499 41.7952C653.779 41.7952 653.139 41.9543 652.578 42.2725C652.025 42.5831 651.589 43.0338 651.271 43.6248C650.961 44.2157 650.805 44.9316 650.805 45.7725ZM673.783 62.9088C672.305 62.9088 671.036 62.7081 669.976 62.3066C668.915 61.9126 668.063 61.3823 667.419 60.7157C666.775 60.049 666.328 59.3104 666.078 58.4998L669.783 57.602C669.949 57.9429 670.192 58.2801 670.51 58.6134C670.828 58.9543 671.256 59.2346 671.794 59.4543C672.339 59.6816 673.025 59.7952 673.851 59.7952C675.018 59.7952 675.983 59.5111 676.749 58.9429C677.514 58.3823 677.896 57.4581 677.896 56.1702V52.8634H677.692C677.48 53.2876 677.169 53.7232 676.76 54.1702C676.358 54.6172 675.824 54.9922 675.158 55.2952C674.499 55.5982 673.669 55.7498 672.669 55.7498C671.328 55.7498 670.112 55.4354 669.021 54.8066C667.938 54.1702 667.074 53.2232 666.43 51.9657C665.794 50.7005 665.476 49.1172 665.476 47.2157C665.476 45.299 665.794 43.6816 666.43 42.3634C667.074 41.0376 667.942 40.0338 669.033 39.352C670.124 38.6626 671.339 38.3179 672.68 38.3179C673.703 38.3179 674.544 38.4922 675.203 38.8407C675.87 39.1816 676.4 39.5945 676.794 40.0793C677.188 40.5566 677.487 41.0073 677.692 41.4316H677.919V38.5452H681.976V56.2838C681.976 57.7763 681.62 59.0111 680.908 59.9884C680.196 60.9657 679.222 61.6967 677.987 62.1816C676.752 62.6664 675.351 62.9088 673.783 62.9088ZM673.817 52.5225C674.688 52.5225 675.43 52.3104 676.044 51.8861C676.658 51.4619 677.124 50.852 677.442 50.0566C677.76 49.2611 677.919 48.3066 677.919 47.1929C677.919 46.0945 677.76 45.1323 677.442 44.3066C677.131 43.4808 676.669 42.8407 676.055 42.3861C675.449 41.924 674.703 41.6929 673.817 41.6929C672.9 41.6929 672.135 41.9316 671.521 42.4088C670.908 42.8861 670.446 43.5414 670.135 44.3748C669.824 45.2005 669.669 46.1399 669.669 47.1929C669.669 48.2611 669.824 49.1967 670.135 49.9998C670.453 50.7952 670.919 51.4164 671.533 51.8634C672.154 52.3028 672.915 52.5225 673.817 52.5225ZM696.686 62.5452C696.125 62.5452 695.607 62.4998 695.129 62.4088C694.66 62.3255 694.285 62.227 694.004 62.1134L694.959 58.9088C695.557 59.0831 696.091 59.1664 696.561 59.1588C697.031 59.1513 697.444 59.0035 697.8 58.7157C698.163 58.4354 698.47 57.9657 698.72 57.3066L699.072 56.3634L692.743 38.5452H697.107L701.129 51.727H701.311L705.345 38.5452H709.72L702.732 58.1134C702.406 59.0376 701.974 59.8293 701.436 60.4884C700.898 61.1551 700.239 61.6626 699.459 62.0111C698.686 62.3672 697.762 62.5452 696.686 62.5452ZM719.587 56.3407C717.882 56.3407 716.405 55.9657 715.155 55.2157C713.905 54.4657 712.935 53.4164 712.246 52.0679C711.564 50.7195 711.223 49.1437 711.223 47.3407C711.223 45.5376 711.564 43.9581 712.246 42.602C712.935 41.246 713.905 40.1929 715.155 39.4429C716.405 38.6929 717.882 38.3179 719.587 38.3179C721.291 38.3179 722.768 38.6929 724.018 39.4429C725.268 40.1929 726.234 41.246 726.916 42.602C727.606 43.9581 727.95 45.5376 727.95 47.3407C727.95 49.1437 727.606 50.7195 726.916 52.0679C726.234 53.4164 725.268 54.4657 724.018 55.2157C722.768 55.9657 721.291 56.3407 719.587 56.3407ZM719.609 53.0452C720.534 53.0452 721.306 52.7914 721.928 52.2838C722.549 51.7687 723.011 51.0793 723.314 50.2157C723.625 49.352 723.78 48.3899 723.78 47.3293C723.78 46.2611 723.625 45.2952 723.314 44.4316C723.011 43.5604 722.549 42.8672 721.928 42.352C721.306 41.8369 720.534 41.5793 719.609 41.5793C718.662 41.5793 717.875 41.8369 717.246 42.352C716.625 42.8672 716.159 43.5604 715.848 44.4316C715.545 45.2952 715.393 46.2611 715.393 47.3293C715.393 48.3899 715.545 49.352 715.848 50.2157C716.159 51.0793 716.625 51.7687 717.246 52.2838C717.875 52.7914 718.662 53.0452 719.609 53.0452ZM742.567 48.6588V38.5452H746.68V55.9998H742.692V52.8975H742.51C742.116 53.8748 741.468 54.674 740.567 55.2952C739.673 55.9164 738.571 56.227 737.26 56.227C736.116 56.227 735.105 55.9732 734.226 55.4657C733.355 54.9505 732.673 54.2043 732.18 53.227C731.688 52.2422 731.442 51.0528 731.442 49.6588V38.5452H735.555V49.0225C735.555 50.1285 735.858 51.0073 736.464 51.6588C737.071 52.3104 737.866 52.6361 738.851 52.6361C739.457 52.6361 740.044 52.4884 740.612 52.1929C741.18 51.8975 741.646 51.4581 742.01 50.8748C742.381 50.2838 742.567 49.5452 742.567 48.6588ZM750.911 55.9998V38.5452H754.899V41.4543H755.081C755.399 40.4467 755.945 39.6702 756.717 39.1248C757.498 38.5717 758.388 38.2952 759.388 38.2952C759.615 38.2952 759.869 38.3066 760.149 38.3293C760.437 38.3445 760.676 38.371 760.865 38.4088V42.1929C760.691 42.1323 760.414 42.0793 760.036 42.0338C759.664 41.9808 759.304 41.9543 758.956 41.9543C758.206 41.9543 757.532 42.1172 756.933 42.4429C756.342 42.7611 755.876 43.2043 755.536 43.7725C755.195 44.3407 755.024 44.996 755.024 45.7384V55.9998H750.911ZM771.717 55.9998V32.727H775.831V41.4316H776.001C776.214 41.0073 776.513 40.5566 776.899 40.0793C777.286 39.5945 777.808 39.1816 778.467 38.8407C779.126 38.4922 779.967 38.3179 780.99 38.3179C782.339 38.3179 783.554 38.6626 784.638 39.352C785.729 40.0338 786.592 41.0452 787.229 42.3861C787.873 43.7195 788.195 45.3558 788.195 47.2952C788.195 49.2119 787.88 50.8407 787.251 52.1816C786.623 53.5225 785.767 54.5452 784.683 55.2498C783.6 55.9543 782.373 56.3066 781.001 56.3066C780.001 56.3066 779.172 56.1399 778.513 55.8066C777.854 55.4732 777.323 55.0717 776.922 54.602C776.528 54.1248 776.221 53.674 776.001 53.2498H775.763V55.9998H771.717ZM775.751 47.2725C775.751 48.4013 775.911 49.3899 776.229 50.2384C776.554 51.0869 777.02 51.7498 777.626 52.227C778.24 52.6967 778.982 52.9316 779.854 52.9316C780.763 52.9316 781.524 52.6891 782.138 52.2043C782.751 51.7119 783.214 51.0414 783.524 50.1929C783.842 49.3369 784.001 48.3634 784.001 47.2725C784.001 46.1891 783.846 45.227 783.536 44.3861C783.225 43.5452 782.763 42.8861 782.149 42.4088C781.536 41.9316 780.77 41.6929 779.854 41.6929C778.975 41.6929 778.229 41.924 777.615 42.3861C777.001 42.8482 776.536 43.496 776.217 44.3293C775.907 45.1626 775.751 46.1437 775.751 47.2725ZM802.817 48.6588V38.5452H806.93V55.9998H802.942V52.8975H802.76C802.366 53.8748 801.718 54.674 800.817 55.2952C799.923 55.9164 798.821 56.227 797.51 56.227C796.366 56.227 795.355 55.9732 794.476 55.4657C793.605 54.9505 792.923 54.2043 792.43 53.227C791.938 52.2422 791.692 51.0528 791.692 49.6588V38.5452H795.805V49.0225C795.805 50.1285 796.108 51.0073 796.714 51.6588C797.321 52.3104 798.116 52.6361 799.101 52.6361C799.707 52.6361 800.294 52.4884 800.862 52.1929C801.43 51.8975 801.896 51.4581 802.26 50.8748C802.631 50.2838 802.817 49.5452 802.817 48.6588ZM824.956 43.1588L821.206 43.5679C821.1 43.1891 820.914 42.8331 820.649 42.4998C820.392 42.1664 820.043 41.8975 819.604 41.6929C819.164 41.4884 818.626 41.3861 817.99 41.3861C817.134 41.3861 816.414 41.5717 815.831 41.9429C815.255 42.3141 814.971 42.7952 814.979 43.3861C814.971 43.8937 815.157 44.3066 815.536 44.6248C815.922 44.9429 816.558 45.2043 817.445 45.4088L820.422 46.0452C822.073 46.4013 823.301 46.9657 824.104 47.7384C824.914 48.5111 825.323 49.5225 825.331 50.7725C825.323 51.871 825.001 52.8407 824.365 53.6816C823.736 54.5149 822.861 55.1664 821.74 55.6361C820.619 56.1058 819.331 56.3407 817.876 56.3407C815.74 56.3407 814.02 55.8937 812.717 54.9998C811.414 54.0982 810.638 52.8445 810.388 51.2384L814.399 50.852C814.581 51.6399 814.967 52.2346 815.558 52.6361C816.149 53.0376 816.918 53.2384 817.865 53.2384C818.842 53.2384 819.626 53.0376 820.217 52.6361C820.816 52.2346 821.115 51.7384 821.115 51.1475C821.115 50.6475 820.922 50.2346 820.536 49.9088C820.157 49.5831 819.566 49.3331 818.763 49.1588L815.786 48.5338C814.111 48.1854 812.873 47.5982 812.07 46.7725C811.267 45.9391 810.869 44.8861 810.876 43.6134C810.869 42.5376 811.161 41.6058 811.751 40.8179C812.35 40.0225 813.179 39.4088 814.24 38.977C815.308 38.5376 816.539 38.3179 817.933 38.3179C819.979 38.3179 821.589 38.7535 822.763 39.6248C823.945 40.496 824.676 41.674 824.956 43.1588ZM828.723 55.9998V38.5452H832.837V55.9998H828.723ZM830.791 36.0679C830.14 36.0679 829.579 35.852 829.109 35.4202C828.64 34.9808 828.405 34.4543 828.405 33.8407C828.405 33.2195 828.64 32.6929 829.109 32.2611C829.579 31.8217 830.14 31.602 830.791 31.602C831.45 31.602 832.011 31.8217 832.473 32.2611C832.943 32.6929 833.178 33.2195 833.178 33.8407C833.178 34.4543 832.943 34.9808 832.473 35.4202C832.011 35.852 831.45 36.0679 830.791 36.0679ZM841.18 45.7725V55.9998H837.067V38.5452H840.999V41.5111H841.203C841.605 40.5338 842.245 39.7573 843.124 39.1816C844.01 38.6058 845.105 38.3179 846.408 38.3179C847.612 38.3179 848.661 38.5755 849.555 39.0907C850.457 39.6058 851.154 40.352 851.646 41.3293C852.146 42.3066 852.393 43.4922 852.385 44.8861V55.9998H848.271V45.5225C848.271 44.3558 847.968 43.4429 847.362 42.7838C846.764 42.1248 845.934 41.7952 844.874 41.7952C844.154 41.7952 843.514 41.9543 842.953 42.2725C842.4 42.5831 841.964 43.0338 841.646 43.6248C841.336 44.2157 841.18 44.9316 841.18 45.7725ZM864.294 56.3407C862.544 56.3407 861.033 55.977 859.76 55.2498C858.495 54.5149 857.521 53.477 856.839 52.1361C856.158 50.7876 855.817 49.2005 855.817 47.3748C855.817 45.5793 856.158 44.0035 856.839 42.6475C857.529 41.2838 858.491 40.2232 859.726 39.4657C860.961 38.7005 862.411 38.3179 864.078 38.3179C865.154 38.3179 866.169 38.4922 867.124 38.8407C868.086 39.1816 868.934 39.7119 869.669 40.4316C870.411 41.1513 870.995 42.0679 871.419 43.1816C871.843 44.2876 872.055 45.6058 872.055 47.1361V48.3975H857.749V45.6248H868.112C868.105 44.8369 867.934 44.1361 867.601 43.5225C867.268 42.9013 866.802 42.4126 866.203 42.0566C865.612 41.7005 864.923 41.5225 864.135 41.5225C863.294 41.5225 862.555 41.727 861.919 42.1361C861.283 42.5376 860.786 43.0679 860.43 43.727C860.082 44.3785 859.904 45.0945 859.896 45.8748V48.2952C859.896 49.3104 860.082 50.1816 860.453 50.9088C860.824 51.6285 861.343 52.1816 862.01 52.5679C862.677 52.9467 863.457 53.1361 864.351 53.1361C864.949 53.1361 865.491 53.0528 865.976 52.8861C866.461 52.7119 866.881 52.4581 867.237 52.1248C867.593 51.7914 867.862 51.3785 868.044 50.8861L871.885 51.3179C871.643 52.3331 871.18 53.2195 870.499 53.977C869.824 54.727 868.961 55.3104 867.908 55.727C866.855 56.1361 865.65 56.3407 864.294 56.3407ZM889.331 43.1588L885.581 43.5679C885.475 43.1891 885.289 42.8331 885.024 42.4998C884.767 42.1664 884.418 41.8975 883.979 41.6929C883.539 41.4884 883.001 41.3861 882.365 41.3861C881.509 41.3861 880.789 41.5717 880.206 41.9429C879.63 42.3141 879.346 42.7952 879.354 43.3861C879.346 43.8937 879.532 44.3066 879.911 44.6248C880.297 44.9429 880.933 45.2043 881.82 45.4088L884.797 46.0452C886.448 46.4013 887.676 46.9657 888.479 47.7384C889.289 48.5111 889.698 49.5225 889.706 50.7725C889.698 51.871 889.376 52.8407 888.74 53.6816C888.111 54.5149 887.236 55.1664 886.115 55.6361C884.994 56.1058 883.706 56.3407 882.251 56.3407C880.115 56.3407 878.395 55.8937 877.092 54.9998C875.789 54.0982 875.013 52.8445 874.763 51.2384L878.774 50.852C878.956 51.6399 879.342 52.2346 879.933 52.6361C880.524 53.0376 881.293 53.2384 882.24 53.2384C883.217 53.2384 884.001 53.0376 884.592 52.6361C885.191 52.2346 885.49 51.7384 885.49 51.1475C885.49 50.6475 885.297 50.2346 884.911 49.9088C884.532 49.5831 883.941 49.3331 883.138 49.1588L880.161 48.5338C878.486 48.1854 877.248 47.5982 876.445 46.7725C875.642 45.9391 875.244 44.8861 875.251 43.6134C875.244 42.5376 875.536 41.6058 876.126 40.8179C876.725 40.0225 877.554 39.4088 878.615 38.977C879.683 38.5376 880.914 38.3179 882.308 38.3179C884.354 38.3179 885.964 38.7535 887.138 39.6248C888.32 40.496 889.051 41.674 889.331 43.1588ZM906.893 43.1588L903.143 43.5679C903.037 43.1891 902.852 42.8331 902.587 42.4998C902.329 42.1664 901.981 41.8975 901.541 41.6929C901.102 41.4884 900.564 41.3861 899.928 41.3861C899.071 41.3861 898.352 41.5717 897.768 41.9429C897.193 42.3141 896.909 42.7952 896.916 43.3861C896.909 43.8937 897.094 44.3066 897.473 44.6248C897.859 44.9429 898.496 45.2043 899.382 45.4088L902.359 46.0452C904.011 46.4013 905.238 46.9657 906.041 47.7384C906.852 48.5111 907.261 49.5225 907.268 50.7725C907.261 51.871 906.939 52.8407 906.303 53.6816C905.674 54.5149 904.799 55.1664 903.678 55.6361C902.556 56.1058 901.268 56.3407 899.814 56.3407C897.678 56.3407 895.958 55.8937 894.655 54.9998C893.352 54.0982 892.575 52.8445 892.325 51.2384L896.337 50.852C896.518 51.6399 896.905 52.2346 897.496 52.6361C898.087 53.0376 898.856 53.2384 899.803 53.2384C900.78 53.2384 901.564 53.0376 902.155 52.6361C902.753 52.2346 903.053 51.7384 903.053 51.1475C903.053 50.6475 902.859 50.2346 902.473 49.9088C902.094 49.5831 901.503 49.3331 900.7 49.1588L897.723 48.5338C896.049 48.1854 894.81 47.5982 894.007 46.7725C893.204 45.9391 892.806 44.8861 892.814 43.6134C892.806 42.5376 893.098 41.6058 893.689 40.8179C894.287 40.0225 895.117 39.4088 896.178 38.977C897.246 38.5376 898.477 38.3179 899.871 38.3179C901.916 38.3179 903.526 38.7535 904.7 39.6248C905.882 40.496 906.613 41.674 906.893 43.1588Z" fill="white"/>
</g>
<defs>
<filter id="filter0_b_150_922" x="-100" y="-100" width="1480" height="534" filterUnits="userSpaceOnUse" color-interpolation-filters="sRGB">
<feFlood flood-opacity="0" result="BackgroundImageFix"/>
<feGaussianBlur in="BackgroundImageFix" stdDeviation="50"/>
<feComposite in2="SourceAlpha" operator="in" result="effect1_backgroundBlur_150_922"/>
<feBlend mode="normal" in="SourceGraphic" in2="effect1_backgroundBlur_150_922" result="shape"/>
</filter>
<linearGradient id="paint0_linear_150_922" x1="1280" y1="334" x2="230.908" y2="-352.743" gradientUnits="userSpaceOnUse">
<stop stop-color="#00796D"/>
<stop offset="1" stop-color="#38C682"/>
</linearGradient>
<linearGradient id="paint1_linear_150_922" x1="1282.46" y1="314.914" x2="199.393" y2="-333.205" gradientUnits="userSpaceOnUse">
<stop stop-color="#00796D"/>
<stop offset="1" stop-color="#38C682"/>
</linearGradient>
<linearGradient id="paint2_linear_150_922" x1="91.9996" y1="232" x2="91.9996" y2="-132" gradientUnits="userSpaceOnUse">
<stop stop-color="white"/>
<stop offset="1" stop-color="white" stop-opacity="0"/>
</linearGradient>
<linearGradient id="paint3_linear_150_922" x1="151" y1="170.504" x2="259" y2="170.504" gradientUnits="userSpaceOnUse">
<stop stop-color="white"/>
<stop offset="1" stop-color="white" stop-opacity="0"/>
</linearGradient>
<linearGradient id="paint4_linear_150_922" x1="249" y1="215" x2="148.889" y2="197.9" gradientUnits="userSpaceOnUse">
<stop stop-color="#00796D"/>
<stop offset="1" stop-color="#38C682"/>
</linearGradient>
<linearGradient id="paint5_linear_150_922" x1="226.645" y1="192.666" x2="177.371" y2="184.254" gradientUnits="userSpaceOnUse">
<stop stop-color="#00796D"/>
<stop offset="1" stop-color="#38C682"/>
</linearGradient>
<linearGradient id="paint6_linear_150_922" x1="441" y1="170.504" x2="549" y2="170.504" gradientUnits="userSpaceOnUse">
<stop stop-color="white"/>
<stop offset="1" stop-color="white" stop-opacity="0"/>
</linearGradient>
<linearGradient id="paint7_linear_150_922" x1="539" y1="215" x2="438.889" y2="197.9" gradientUnits="userSpaceOnUse">
<stop stop-color="#00796D"/>
<stop offset="1" stop-color="#38C682"/>
</linearGradient>
<linearGradient id="paint8_linear_150_922" x1="516.147" y1="192.666" x2="467.969" y2="184.632" gradientUnits="userSpaceOnUse">
<stop stop-color="#00796D"/>
<stop offset="1" stop-color="#38C682"/>
</linearGradient>
<linearGradient id="paint9_linear_150_922" x1="516.147" y1="192.666" x2="467.969" y2="184.632" gradientUnits="userSpaceOnUse">
<stop stop-color="#00796D"/>
<stop offset="1" stop-color="#38C682"/>
</linearGradient>
<linearGradient id="paint10_linear_150_922" x1="516.147" y1="192.666" x2="467.969" y2="184.632" gradientUnits="userSpaceOnUse">
<stop stop-color="#00796D"/>
<stop offset="1" stop-color="#38C682"/>
</linearGradient>
<linearGradient id="paint11_linear_150_922" x1="516.147" y1="192.666" x2="467.969" y2="184.632" gradientUnits="userSpaceOnUse">
<stop stop-color="#00796D"/>
<stop offset="1" stop-color="#38C682"/>
</linearGradient>
<linearGradient id="paint12_linear_150_922" x1="516.147" y1="192.666" x2="467.969" y2="184.632" gradientUnits="userSpaceOnUse">
<stop stop-color="#00796D"/>
<stop offset="1" stop-color="#38C682"/>
</linearGradient>
<linearGradient id="paint13_linear_150_922" x1="731" y1="170.504" x2="839" y2="170.504" gradientUnits="userSpaceOnUse">
<stop stop-color="white"/>
<stop offset="1" stop-color="white" stop-opacity="0"/>
</linearGradient>
<linearGradient id="paint14_linear_150_922" x1="829" y1="215" x2="728.889" y2="197.9" gradientUnits="userSpaceOnUse">
<stop stop-color="#00796D"/>
<stop offset="1" stop-color="#38C682"/>
</linearGradient>
<linearGradient id="paint15_linear_150_922" x1="806.733" y1="192.499" x2="757.282" y2="183.989" gradientUnits="userSpaceOnUse">
<stop stop-color="#00796D"/>
<stop offset="1" stop-color="#38C682"/>
</linearGradient>
<linearGradient id="paint16_linear_150_922" x1="806.733" y1="192.499" x2="757.282" y2="183.989" gradientUnits="userSpaceOnUse">
<stop stop-color="#00796D"/>
<stop offset="1" stop-color="#38C682"/>
</linearGradient>
<linearGradient id="paint17_linear_150_922" x1="1021" y1="170.504" x2="1129" y2="170.504" gradientUnits="userSpaceOnUse">
<stop stop-color="white"/>
<stop offset="1" stop-color="white" stop-opacity="0"/>
</linearGradient>
<linearGradient id="paint18_linear_150_922" x1="1119" y1="215" x2="1018.89" y2="197.9" gradientUnits="userSpaceOnUse">
<stop stop-color="#00796D"/>
<stop offset="1" stop-color="#38C682"/>
</linearGradient>
<linearGradient id="paint19_linear_150_922" x1="1096.67" y1="192.666" x2="1047.28" y2="184.212" gradientUnits="userSpaceOnUse">
<stop stop-color="#00796D"/>
<stop offset="1" stop-color="#38C682"/>
</linearGradient>
<linearGradient id="paint20_linear_150_922" x1="1096.67" y1="192.666" x2="1047.28" y2="184.212" gradientUnits="userSpaceOnUse">
<stop stop-color="#00796D"/>
<stop offset="1" stop-color="#38C682"/>
</linearGradient>
<linearGradient id="paint21_linear_150_922" x1="1096.67" y1="192.666" x2="1047.28" y2="184.212" gradientUnits="userSpaceOnUse">
<stop stop-color="#00796D"/>
<stop offset="1" stop-color="#38C682"/>
</linearGradient>
<linearGradient id="paint22_linear_150_922" x1="1096.67" y1="192.666" x2="1047.28" y2="184.212" gradientUnits="userSpaceOnUse">
<stop stop-color="#00796D"/>
<stop offset="1" stop-color="#38C682"/>
</linearGradient>
</defs>
</svg>
