<svg width="1280" height="334" viewBox="0 0 1280 334" fill="none" xmlns="http://www.w3.org/2000/svg">
<g filter="url(#filter0_b_2902_833)">
<path fill-rule="evenodd" clip-rule="evenodd" d="M1055 18.3351C1055 8.20875 1046.79 -0.000244141 1036.66 -0.000244141H243.335C233.209 -0.000244141 225 8.20875 225 18.3351C225 28.4614 216.791 36.6704 206.665 36.6704H20C8.95431 36.6704 0 45.6247 0 56.6704V314C0 325.045 8.95431 334 20 334H1260C1271.05 334 1280 325.045 1280 314V56.6704C1280 45.6247 1271.05 36.6704 1260 36.6704H1073.34C1063.21 36.6704 1055 28.4614 1055 18.3351Z" fill="url(#paint0_linear_2902_833)" fill-opacity="0.8"/>
</g>
<defs>
<filter id="filter0_b_2902_833" x="-100" y="-100" width="1480" height="534" filterUnits="userSpaceOnUse" color-interpolation-filters="sRGB">
<feFlood flood-opacity="0" result="BackgroundImageFix"/>
<feGaussianBlur in="BackgroundImageFix" stdDeviation="50"/>
<feComposite in2="SourceAlpha" operator="in" result="effect1_backgroundBlur_2902_833"/>
<feBlend mode="normal" in="SourceGraphic" in2="effect1_backgroundBlur_2902_833" result="shape"/>
</filter>
<linearGradient id="paint0_linear_2902_833" x1="1282.46" y1="314.914" x2="199.393" y2="-333.205" gradientUnits="userSpaceOnUse">
<stop stop-color="#00796D"/>
<stop offset="1" stop-color="#38C682"/>
</linearGradient>
</defs>
</svg>
