<svg width="52" height="34" viewBox="0 0 52 34" fill="none" xmlns="http://www.w3.org/2000/svg">
<g clip-path="url(#clip0_2902_902)">
<path fill-rule="evenodd" clip-rule="evenodd" d="M27.8805 6.01333C28.4459 5.06445 28.0089 4.29523 26.9043 4.29523H19.9043C18.7997 4.29523 17.4459 5.06445 16.8805 6.01333L1.22751 32.2819C0.662087 33.2308 1.09915 34 2.20372 34H17.2037C18.3083 34 19.6621 33.2308 20.2275 32.2819L25.989 22.613C26.5544 21.6642 26.1174 20.895 25.0128 20.895H21.0128C19.9082 20.895 19.4712 20.1257 20.0366 19.1769L27.8805 6.01333Z" fill="url(#paint0_linear_2902_902)"/>
<rect width="17" height="21" rx="1" transform="matrix(1 0 -0.511893 0.859049 34.4639 0)" fill="url(#paint1_linear_2902_902)"/>
<rect width="13" height="13" rx="1" transform="matrix(1 0 -0.511893 0.859049 30.1787 20.6172)" fill="#F5921E"/>
</g>
<defs>
<linearGradient id="paint0_linear_2902_902" x1="19.2037" y1="34" x2="4.34592" y2="23.5232" gradientUnits="userSpaceOnUse">
<stop stop-color="#00796D"/>
<stop offset="1" stop-color="#38C682"/>
</linearGradient>
<linearGradient id="paint1_linear_2902_902" x1="17" y1="21" x2="-2.53037" y2="18.2994" gradientUnits="userSpaceOnUse">
<stop stop-color="#00796D"/>
<stop offset="1" stop-color="#38C682"/>
</linearGradient>
<clipPath id="clip0_2902_902">
<rect width="52" height="34" fill="white"/>
</clipPath>
</defs>
</svg>
