<svg width="108" height="108" viewBox="0 0 108 108" fill="none" xmlns="http://www.w3.org/2000/svg">
<rect width="108" height="108" rx="54" fill="url(#paint0_linear_2902_861)"/>
<rect x="11" y="11" width="86" height="86" rx="43" fill="white"/>
<rect x="11" y="11" width="86" height="86" rx="43" stroke="url(#paint1_linear_2902_861)" stroke-width="2"/>
<path d="M47.5004 32.3333C41.8237 32.3333 37.2087 36.9483 37.2087 42.625C37.2087 48.1933 41.5637 52.7 47.2404 52.895C47.4137 52.8733 47.5871 52.8733 47.7171 52.895C47.7604 52.895 47.7821 52.895 47.8254 52.895C47.8471 52.895 47.8471 52.895 47.8687 52.895C53.4154 52.7 57.7704 48.1933 57.7921 42.625C57.7921 36.9483 53.1771 32.3333 47.5004 32.3333Z" fill="url(#paint2_linear_2902_861)"/>
<path d="M58.5071 58.6583C52.4621 54.6283 42.6037 54.6283 36.5154 58.6583C33.7637 60.5 32.2471 62.9917 32.2471 65.6567C32.2471 68.3217 33.7637 70.7917 36.4937 72.6117C39.5271 74.6483 43.5137 75.6667 47.5004 75.6667C51.4871 75.6667 55.4737 74.6483 58.5071 72.6117C61.2371 70.77 62.7537 68.3 62.7537 65.6133C62.7321 62.9483 61.2371 60.4783 58.5071 58.6583Z" fill="url(#paint3_linear_2902_861)"/>
<path d="M71.3121 43.9033C71.6587 48.1067 68.6687 51.79 64.5304 52.2883C64.5087 52.2883 64.5087 52.2883 64.4871 52.2883H64.4221C64.2921 52.2883 64.1621 52.2883 64.0537 52.3317C61.9521 52.44 60.0237 51.7683 58.5721 50.5333C60.8037 48.54 62.0821 45.55 61.8221 42.3C61.6704 40.545 61.0637 38.9417 60.1537 37.5767C60.9771 37.165 61.9304 36.905 62.9054 36.8183C67.1521 36.45 70.9437 39.6133 71.3121 43.9033Z" fill="url(#paint4_linear_2902_861)"/>
<path d="M75.6454 63.945C75.4721 66.0467 74.1287 67.8667 71.8754 69.1017C69.7087 70.2933 66.9787 70.8567 64.2704 70.7917C65.8304 69.3833 66.7404 67.6283 66.9137 65.765C67.1304 63.0783 65.8521 60.5 63.2954 58.4417C61.8437 57.2933 60.1537 56.3833 58.3121 55.7117C63.1004 54.325 69.1237 55.2567 72.8287 58.2467C74.8221 59.85 75.8404 61.865 75.6454 63.945Z" fill="url(#paint5_linear_2902_861)"/>
<defs>
<linearGradient id="paint0_linear_2902_861" x1="6.3245e-07" y1="53.5046" x2="108" y2="53.5046" gradientUnits="userSpaceOnUse">
<stop stop-color="white"/>
<stop offset="1" stop-color="white" stop-opacity="0"/>
</linearGradient>
<linearGradient id="paint1_linear_2902_861" x1="98" y1="98" x2="-2.11054" y2="80.9" gradientUnits="userSpaceOnUse">
<stop stop-color="#00796D"/>
<stop offset="1" stop-color="#38C682"/>
</linearGradient>
<linearGradient id="paint2_linear_2902_861" x1="75.669" y1="75.6667" x2="26.2771" y2="67.2127" gradientUnits="userSpaceOnUse">
<stop stop-color="#00796D"/>
<stop offset="1" stop-color="#38C682"/>
</linearGradient>
<linearGradient id="paint3_linear_2902_861" x1="75.669" y1="75.6667" x2="26.2771" y2="67.2127" gradientUnits="userSpaceOnUse">
<stop stop-color="#00796D"/>
<stop offset="1" stop-color="#38C682"/>
</linearGradient>
<linearGradient id="paint4_linear_2902_861" x1="75.669" y1="75.6667" x2="26.2771" y2="67.2127" gradientUnits="userSpaceOnUse">
<stop stop-color="#00796D"/>
<stop offset="1" stop-color="#38C682"/>
</linearGradient>
<linearGradient id="paint5_linear_2902_861" x1="75.669" y1="75.6667" x2="26.2771" y2="67.2127" gradientUnits="userSpaceOnUse">
<stop stop-color="#00796D"/>
<stop offset="1" stop-color="#38C682"/>
</linearGradient>
</defs>
</svg>
