<svg width="108" height="108" viewBox="0 0 108 108" fill="none" xmlns="http://www.w3.org/2000/svg">
<rect width="108" height="108" rx="54" fill="url(#paint0_linear_2902_847)"/>
<rect x="11" y="11" width="86" height="86" rx="43" fill="white"/>
<rect x="11" y="11" width="86" height="86" rx="43" stroke="url(#paint1_linear_2902_847)" stroke-width="2"/>
<path d="M53.8702 32.7883L48.6485 44.9433H43.4268C42.5602 44.9433 41.7152 45.0083 40.8918 45.1817L43.0585 39.9817L43.1452 39.7867L43.2752 39.44C43.3402 39.2883 43.3835 39.1583 43.4485 39.05C45.9619 33.2217 48.7785 31.4017 53.8702 32.7883Z" fill="url(#paint2_linear_2902_847)"/>
<path d="M68.5818 45.5283L68.5385 45.5067C67.2385 45.1383 65.9168 44.9433 64.5735 44.9433H51.0102L55.8852 33.6117L55.9502 33.46C56.2535 33.5683 56.5785 33.72 56.9035 33.8283L61.6919 35.8433C64.3569 36.9483 66.2202 38.0967 67.3685 39.4833C67.5635 39.7433 67.7369 39.9817 67.9102 40.2633C68.1052 40.5667 68.2569 40.87 68.3435 41.195C68.4302 41.39 68.4952 41.5633 68.5385 41.7583C68.8635 42.8633 68.8852 44.12 68.5818 45.5283Z" fill="url(#paint3_linear_2902_847)"/>
<path d="M55.1269 66.2633H55.6685C56.3185 66.2633 56.8602 65.6783 56.8602 64.9633C56.8602 64.0533 56.6002 63.9233 56.0368 63.7067L55.1269 63.3817V66.2633Z" fill="url(#paint4_linear_2902_847)"/>
<path d="M67.6285 48.6267C66.6535 48.345 65.6352 48.1933 64.5735 48.1933H43.4268C41.9535 48.1933 40.5668 48.475 39.2668 49.0383C35.4968 50.6633 32.8535 54.4117 32.8535 58.7667V62.9917C32.8535 63.5117 32.8968 64.01 32.9618 64.53C33.4385 71.42 37.1218 75.1033 44.0118 75.5583C44.5102 75.6233 45.0085 75.6667 45.5502 75.6667H62.4502C70.4669 75.6667 74.6918 71.8533 75.1035 64.27C75.1252 63.8583 75.1469 63.425 75.1469 62.9917V58.7667C75.1469 53.9783 71.9619 49.9483 67.6285 48.6267ZM56.7735 61.5833C57.7702 61.93 59.1135 62.6667 59.1135 64.9633C59.1135 66.935 57.5752 68.5167 55.6685 68.5167H55.1269V68.9933C55.1269 69.6217 54.6285 70.12 54.0002 70.12C53.3719 70.12 52.8735 69.6217 52.8735 68.9933V68.5167H52.6785C50.5985 68.5167 48.8869 66.7617 48.8869 64.595C48.8869 63.9667 49.3852 63.4683 50.0135 63.4683C50.6418 63.4683 51.1402 63.9667 51.1402 64.595C51.1402 65.505 51.8335 66.2633 52.6785 66.2633H52.8735V62.6017L51.2269 62.0167C50.2302 61.67 48.8869 60.9333 48.8869 58.6367C48.8869 56.665 50.4252 55.0833 52.3319 55.0833H52.8735V54.6067C52.8735 53.9783 53.3719 53.48 54.0002 53.48C54.6285 53.48 55.1269 53.9783 55.1269 54.6067V55.0833H55.3218C57.4018 55.0833 59.1135 56.8383 59.1135 59.005C59.1135 59.6333 58.6152 60.1317 57.9869 60.1317C57.3585 60.1317 56.8602 59.6333 56.8602 59.005C56.8602 58.095 56.1668 57.3367 55.3218 57.3367H55.1269V60.9983L56.7735 61.5833Z" fill="url(#paint5_linear_2902_847)"/>
<path d="M51.1402 58.6367C51.1402 59.5467 51.4002 59.6767 51.9635 59.8933L52.8735 60.2183V57.3367H52.3319C51.6602 57.3367 51.1402 57.9217 51.1402 58.6367Z" fill="url(#paint6_linear_2902_847)"/>
<defs>
<linearGradient id="paint0_linear_2902_847" x1="6.3245e-07" y1="53.5046" x2="108" y2="53.5046" gradientUnits="userSpaceOnUse">
<stop stop-color="white"/>
<stop offset="1" stop-color="white" stop-opacity="0"/>
</linearGradient>
<linearGradient id="paint1_linear_2902_847" x1="98" y1="98" x2="-2.11054" y2="80.9" gradientUnits="userSpaceOnUse">
<stop stop-color="#00796D"/>
<stop offset="1" stop-color="#38C682"/>
</linearGradient>
<linearGradient id="paint2_linear_2902_847" x1="75.1468" y1="75.6667" x2="26.9691" y2="67.6324" gradientUnits="userSpaceOnUse">
<stop stop-color="#00796D"/>
<stop offset="1" stop-color="#38C682"/>
</linearGradient>
<linearGradient id="paint3_linear_2902_847" x1="75.1468" y1="75.6667" x2="26.9691" y2="67.6324" gradientUnits="userSpaceOnUse">
<stop stop-color="#00796D"/>
<stop offset="1" stop-color="#38C682"/>
</linearGradient>
<linearGradient id="paint4_linear_2902_847" x1="75.1468" y1="75.6667" x2="26.9691" y2="67.6324" gradientUnits="userSpaceOnUse">
<stop stop-color="#00796D"/>
<stop offset="1" stop-color="#38C682"/>
</linearGradient>
<linearGradient id="paint5_linear_2902_847" x1="75.1468" y1="75.6667" x2="26.9691" y2="67.6324" gradientUnits="userSpaceOnUse">
<stop stop-color="#00796D"/>
<stop offset="1" stop-color="#38C682"/>
</linearGradient>
<linearGradient id="paint6_linear_2902_847" x1="75.1468" y1="75.6667" x2="26.9691" y2="67.6324" gradientUnits="userSpaceOnUse">
<stop stop-color="#00796D"/>
<stop offset="1" stop-color="#38C682"/>
</linearGradient>
</defs>
</svg>
