<svg width="40" height="40" viewBox="0 0 40 40" fill="none" xmlns="http://www.w3.org/2000/svg">
<path d="M18.3335 8.3336V26.9503L10.2001 18.8169C9.55013 18.1669 8.48347 18.1669 7.83347 18.8169C7.18347 19.4669 7.18347 20.5169 7.83347 21.1669L18.8168 32.1503C19.4668 32.8003 20.5168 32.8003 21.1668 32.1503L32.1668 21.1836C32.8168 20.5336 32.8168 19.4836 32.1668 18.8336C31.5168 18.1836 30.4668 18.1836 29.8168 18.8336L21.6668 26.9503V8.3336C21.6668 7.41693 20.9168 6.66693 20.0001 6.66693C19.0835 6.66693 18.3335 7.41693 18.3335 8.3336Z" fill="url(#paint0_linear_2914_656)"/>
<defs>
<linearGradient id="paint0_linear_2914_656" x1="7.34597" y1="32.6378" x2="12.5169" y2="3.13719" gradientUnits="userSpaceOnUse">
<stop stop-color="#00796D"/>
<stop offset="1" stop-color="#38C682"/>
</linearGradient>
</defs>
</svg>
