<svg width="108" height="108" viewBox="0 0 108 108" fill="none" xmlns="http://www.w3.org/2000/svg">
<rect width="108" height="108" rx="54" fill="url(#paint0_linear_2902_840)"/>
<rect x="11" y="11" width="86" height="86" rx="43" fill="white"/>
<rect x="11" y="11" width="86" height="86" rx="43" stroke="url(#paint1_linear_2902_840)" stroke-width="2"/>
<path d="M63.078 32.3333H44.9213C37.0347 32.3333 32.333 37.035 32.333 44.9217V63.0567C32.333 70.965 37.0347 75.6667 44.9213 75.6667H63.0563C70.943 75.6667 75.6447 70.965 75.6447 63.0783V44.9217C75.6663 37.035 70.9647 32.3333 63.078 32.3333ZM52.9813 57.315L44.9213 65.375H49.6663C50.5547 65.375 51.2913 66.1117 51.2913 67C51.2913 67.8883 50.5547 68.625 49.6663 68.625H40.9997C40.783 68.625 40.5663 68.5817 40.3713 68.495C39.9813 68.3217 39.6563 68.0183 39.483 67.6067C39.418 67.4117 39.3747 67.2167 39.3747 67V58.3333C39.3747 57.445 40.1113 56.7083 40.9997 56.7083C41.888 56.7083 42.6247 57.445 42.6247 58.3333V63.0783L50.6847 55.0183C51.313 54.39 52.353 54.39 52.9813 55.0183C53.6097 55.6467 53.6097 56.6867 52.9813 57.315ZM68.6247 49.6667C68.6247 50.555 67.888 51.2917 66.9997 51.2917C66.1113 51.2917 65.3747 50.555 65.3747 49.6667V44.9217L57.3147 52.9817C56.9897 53.3067 56.578 53.4583 56.1663 53.4583C55.7547 53.4583 55.343 53.3067 55.018 52.9817C54.3897 52.3533 54.3897 51.3133 55.018 50.685L63.078 42.625H58.333C57.4447 42.625 56.708 41.8883 56.708 41C56.708 40.1117 57.4447 39.375 58.333 39.375H66.9997C67.2163 39.375 67.4113 39.4183 67.628 39.505C68.018 39.6783 68.343 39.9817 68.5163 40.3933C68.5813 40.5883 68.6247 40.7833 68.6247 41V49.6667Z" fill="url(#paint2_linear_2902_840)"/>
<defs>
<linearGradient id="paint0_linear_2902_840" x1="6.3245e-07" y1="53.5046" x2="108" y2="53.5046" gradientUnits="userSpaceOnUse">
<stop stop-color="white"/>
<stop offset="1" stop-color="white" stop-opacity="0"/>
</linearGradient>
<linearGradient id="paint1_linear_2902_840" x1="98" y1="98" x2="-2.11054" y2="80.9" gradientUnits="userSpaceOnUse">
<stop stop-color="#00796D"/>
<stop offset="1" stop-color="#38C682"/>
</linearGradient>
<linearGradient id="paint2_linear_2902_840" x1="75.6447" y1="75.6667" x2="26.3711" y2="67.2543" gradientUnits="userSpaceOnUse">
<stop stop-color="#00796D"/>
<stop offset="1" stop-color="#38C682"/>
</linearGradient>
</defs>
</svg>
